<svg height="7" viewBox="0 0 38 7" width="38" xmlns="http://www.w3.org/2000/svg"><path d="m557.703 64.406v2.119l-.212.955.106.795v4.929l.106 1.536-.159.743.159.848-.212 1.43.106 1.008.106 1.431-.106.847.106 1.538v1.643l-.106.901v2.331l-.106 1.431.053.849.159 1.696-.212.688.106.955v1.589l.106.583v.849l-.106.636-.318 2.596-1.377.16-.796.212-.741-.054-.689-.265-1.643-.106-.318-1.695v-3.127l.159-.795-.212-.795v-1.431l.212-.955-.053-.795v-1.589l-.159-.902.212-.741-.212-.583v-1.06l.212-.795v-.743l-.212-.688.212-.742-.159-.743.159-.953-.212-1.643v-2.173l.212-.901v-.742l-.212-.689v-1.06l.212-1.643-.106-.69.053-.848v-1.643l-.106-1.378v-1.801l.159-.742.106-1.326 1.483-.529 1.643.105 2.173.319z" fill="#fff" fill-rule="evenodd" transform="matrix(0 1 -1 0 99.704 -551.662)"/></svg>