<?xml version="1.0" standalone="no"?>
<!DOCTYPE svg PUBLIC "-//W3C//DTD SVG 20010904//EN"
 "http://www.w3.org/TR/2001/REC-SVG-20010904/DTD/svg10.dtd">
<svg version="1.0" xmlns="http://www.w3.org/2000/svg"
 width="320.000000pt" height="320.000000pt" viewBox="0 0 320.000000 320.000000"
 preserveAspectRatio="xMidYMid meet">
<metadata>
Created by potrace 1.11, written by Peter Selinger 2001-2013
</metadata>
<g transform="translate(0.000000,320.000000) scale(0.100000,-0.100000)"
fill="#000000" stroke="none">
<path d="M1385 2845 c-158 -28 -319 -77 -383 -117 -111 -68 -235 -176 -284
-246 -40 -58 -48 -87 -62 -232 -4 -38 2 -36 -144 -54 -89 -11 -116 -26 -305
-176 -45 -36 -64 -61 -96 -125 -44 -91 -78 -179 -86 -227 -3 -18 -10 -50 -16
-71 -30 -114 40 -347 156 -521 36 -54 69 -113 72 -130 8 -37 112 -145 163
-168 149 -67 180 -82 180 -90 0 -5 5 -6 10 -3 6 3 13 -1 16 -9 3 -8 16 -18 27
-22 12 -3 53 -19 90 -36 61 -26 133 -43 277 -64 25 -3 52 -7 60 -9 15 -3 115
-18 135 -20 6 -1 15 2 20 5 6 4 32 13 59 19 41 10 55 10 80 -3 175 -84 188
-89 286 -91 85 -3 102 -7 165 -38 39 -19 86 -38 105 -41 92 -16 126 -17 186
-7 54 10 73 9 117 -5 29 -9 99 -17 157 -20 122 -4 196 16 290 79 30 20 57 38
60 39 17 8 71 98 74 126 3 17 8 37 11 43 25 40 5 179 -35 244 -58 94 -212 191
-360 229 -50 13 -96 28 -101 33 -6 6 10 5 39 -2 86 -23 259 -2 344 40 58 29
133 83 218 156 62 53 162 211 203 319 14 36 37 94 53 130 19 44 28 84 29 125
1 64 -19 150 -40 175 -23 27 -75 120 -75 135 0 8 -5 15 -10 15 -6 0 -24 21
-40 48 -92 148 -144 195 -350 312 -165 94 -220 120 -310 148 -67 20 -300 61
-470 82 -52 7 -133 18 -180 25 -109 16 -246 16 -335 0z m133 -32 c-10 -2 -26
-2 -35 0 -10 3 -2 5 17 5 19 0 27 -2 18 -5z m109 0 c-16 -16 15 -31 45 -22 37
10 44 7 24 -10 -25 -21 -50 -19 -68 5 -21 26 -22 34 -6 34 6 0 8 -3 5 -7z
m150 -10 c-32 -8 -7 -22 30 -16 26 5 34 3 29 -6 -4 -6 -12 -9 -17 -5 -5 3 -8
0 -7 -8 2 -7 -3 -13 -9 -12 -39 3 -44 5 -38 14 3 6 2 10 -4 10 -5 0 -13 -4
-16 -10 -3 -5 -16 -10 -28 -10 -15 0 -18 3 -10 11 17 17 56 37 73 37 10 0 9
-2 -3 -5z m-447 -23 c0 -5 -8 -10 -17 -10 -15 0 -16 2 -3 10 19 12 20 12 20 0z
m250 0 c0 -5 -7 -10 -16 -10 -8 0 -12 5 -9 10 3 6 10 10 16 10 5 0 9 -4 9 -10z
m35 0 c3 -5 -1 -10 -10 -10 -9 0 -13 5 -10 10 3 6 8 10 10 10 2 0 7 -4 10 -10z
m290 0 c-3 -5 -14 -10 -23 -9 -14 0 -13 2 3 9 27 11 27 11 20 0z m-388 -6 c-3
-3 -12 -4 -19 -1 -8 3 -5 6 6 6 11 1 17 -2 13 -5z m493 -4 c0 -5 -2 -10 -4
-10 -3 0 -8 5 -11 10 -3 6 -1 10 4 10 6 0 11 -4 11 -10z m117 4 c-3 -3 -12 -4
-19 -1 -8 3 -5 6 6 6 11 1 17 -2 13 -5z m-737 -8 c0 -11 -19 -15 -25 -6 -3 5
1 10 9 10 9 0 16 -2 16 -4z m475 -6 c3 -6 -4 -10 -17 -10 -18 0 -20 2 -8 10
19 12 18 12 25 0z m323 -2 c-2 -6 8 -15 22 -19 25 -7 11 -13 -24 -9 -10 1 -15
-3 -12 -8 8 -14 -15 -21 -39 -11 -14 5 -16 8 -5 9 8 2 18 2 22 2 3 -1 12 5 18
13 10 12 8 17 -11 24 -24 10 -24 10 4 10 15 1 26 -4 25 -11z m-748 -18 c-11
-11 -20 -24 -20 -30 0 -5 -9 -10 -20 -10 -25 0 -26 16 -2 29 10 6 12 11 4 11
-27 0 1 20 29 20 l29 0 -20 -20z m107 14 c-3 -3 -12 -4 -19 -1 -8 3 -5 6 6 6
11 1 17 -2 13 -5z m206 -4 c47 1 47 -22 1 -31 -27 -5 -26 -6 13 -10 31 -3 39
-1 32 7 -18 22 30 27 122 13 49 -7 85 -17 82 -22 -3 -5 2 -5 12 0 10 6 26 8
37 5 18 -4 18 -5 1 -25 -18 -20 -18 -21 7 -4 13 9 37 17 53 17 26 0 28 -2 16
-17 -13 -15 -12 -15 8 -5 45 24 86 8 46 -18 -22 -14 -7 -9 29 9 16 8 37 11 55
7 l28 -8 -25 -19 -25 -20 32 15 c40 20 57 20 50 2 -7 -18 15 -37 39 -34 11 2
20 -1 22 -7 1 -5 -7 -11 -18 -13 -21 -3 -21 -4 4 -27 14 -13 23 -30 20 -38 -7
-19 27 -32 38 -15 11 18 10 36 -2 43 -16 10 -11 42 7 50 35 13 92 16 110 6 17
-10 17 -10 -2 -11 -11 -1 -33 -7 -50 -15 -17 -9 -21 -13 -8 -9 12 2 31 7 43 9
12 2 29 6 38 9 9 3 28 -1 42 -8 24 -14 24 -14 -19 -26 -24 -6 -41 -13 -39 -15
2 -3 20 0 39 5 37 10 114 8 125 -3 4 -4 2 -7 -4 -7 -7 0 -12 -5 -12 -11 0 -6
6 -9 14 -6 8 3 17 -1 20 -10 5 -12 1 -14 -19 -11 -13 3 -22 2 -20 -3 3 -4 -1
-10 -7 -13 -9 -4 -8 -5 2 -5 35 3 51 -2 45 -11 -4 -6 5 -10 20 -10 20 0 26 -4
21 -16 -3 -8 -2 -13 2 -10 13 8 72 -23 72 -39 0 -8 7 -16 15 -16 29 -3 33 -4
42 -13 4 -5 3 -6 -4 -2 -6 3 -14 2 -18 -3 -3 -6 -13 -7 -21 -4 -9 3 8 -18 38
-47 49 -48 51 -52 25 -48 -21 4 -25 3 -16 -8 6 -7 16 -11 23 -8 26 10 79 -30
92 -70 10 -29 11 -37 1 -33 -6 2 -12 9 -12 15 0 7 -4 13 -10 14 -5 2 -19 13
-30 26 -11 12 -33 25 -50 27 -28 5 -28 4 9 -15 49 -25 56 -35 50 -75 -3 -28
-3 -28 5 -5 8 23 12 22 15 -5 1 -5 8 -20 14 -33 7 -12 11 -26 8 -31 -3 -5 3
-20 14 -34 24 -30 26 -51 5 -43 -13 4 -14 2 -5 -14 8 -14 8 -20 0 -20 -6 0 -8
-4 -5 -10 12 -19 -6 -32 -20 -14 -13 18 -10 48 4 39 4 -2 5 9 3 25 -6 40 -18
30 -26 -22 -5 -33 -16 -51 -44 -75 -20 -18 -40 -33 -44 -33 -4 0 -4 -8 -1 -17
6 -16 5 -16 -10 -4 -9 7 -17 10 -17 5 -1 -11 -30 27 -30 38 0 4 5 8 11 8 5 0
7 -4 4 -10 -3 -5 1 -10 10 -10 21 0 95 47 95 61 0 5 -5 7 -11 3 -6 -3 -34 16
-62 42 -39 37 -43 39 -14 9 20 -23 37 -44 37 -48 0 -3 -13 -13 -29 -21 -22
-12 -31 -12 -40 -3 -10 9 -11 8 -6 -5 11 -27 -5 -22 -45 15 l-35 32 30 -33
c25 -28 27 -35 15 -43 -11 -8 -9 -8 10 -3 23 6 24 5 10 -10 -12 -16 -12 -17 6
-14 11 2 18 -2 17 -9 -2 -7 0 -13 5 -14 23 -2 45 -8 50 -14 4 -4 0 -6 -8 -5
-34 5 -60 -1 -57 -12 1 -7 -6 -12 -15 -10 -10 2 -18 -1 -18 -7 0 -5 -6 -11
-12 -14 -7 -2 -2 -2 12 0 16 3 22 1 15 -5 -18 -17 -150 -49 -183 -44 -19 2
-32 0 -32 -6 0 -18 109 -6 168 17 63 25 63 25 55 4 -4 -11 -3 -14 5 -9 7 4 12
5 12 1 0 -7 -42 -24 -102 -39 -34 -9 -49 -10 -53 -2 -3 6 -3 -1 0 -16 4 -22 2
-28 -12 -28 -15 0 -16 -2 -3 -10 13 -8 12 -10 -2 -10 -10 0 -18 4 -18 9 0 5
-20 6 -45 3 -35 -4 -45 -1 -45 10 0 15 -77 44 -88 34 -3 -3 2 -6 11 -6 9 0 18
-4 21 -8 10 -16 -70 -12 -136 6 -37 11 -65 16 -63 12 3 -4 46 -18 97 -30 51
-13 98 -26 103 -29 6 -3 31 -6 56 -6 30 0 46 -4 46 -12 0 -8 -15 -13 -39 -13
-21 0 -38 -4 -38 -10 0 -5 -5 -10 -11 -10 -5 0 -7 5 -4 10 3 6 1 10 -4 10 -6
0 -11 7 -11 15 0 9 -9 15 -22 14 -17 -1 -19 -2 -5 -6 32 -8 17 -23 -18 -17
-22 3 -35 1 -35 -5 0 -6 3 -10 8 -10 23 4 31 -4 30 -31 -1 -36 -14 -39 -22 -5
-4 14 -11 25 -17 25 -6 0 -7 -4 -4 -10 3 -5 1 -10 -4 -10 -6 0 -11 5 -11 10 0
6 -12 15 -27 21 -16 7 -37 15 -48 20 -137 57 -505 182 -565 192 -23 4 -18 1
15 -9 98 -30 195 -67 195 -74 0 -8 99 -36 113 -32 4 1 15 -5 23 -13 9 -8 20
-12 26 -9 12 7 128 -37 128 -49 0 -4 5 -5 10 -2 6 4 23 -1 38 -11 15 -10 32
-19 37 -20 6 0 15 -2 21 -2 6 -1 11 -9 11 -17 0 -11 -6 -14 -16 -9 -9 3 -24 7
-34 8 -10 0 -22 8 -27 16 -5 8 -10 10 -10 3 0 -6 -9 -9 -20 -6 -11 3 -20 10
-20 15 0 5 -4 7 -9 3 -5 -3 -47 8 -92 25 -45 16 -85 28 -87 25 -3 -2 4 -7 14
-11 48 -15 64 -25 64 -39 0 -12 -4 -14 -19 -5 -16 8 -20 6 -24 -13 -3 -15 -5
-12 -6 12 -1 26 -4 31 -14 23 -8 -7 -18 -7 -27 -2 -8 6 -26 10 -39 10 -13 0
-31 8 -40 18 -17 20 -91 26 -91 8 0 -6 -5 -4 -10 4 -5 8 -10 11 -10 6 0 -6 -6
-2 -13 8 -7 9 -19 18 -27 20 -46 9 -70 20 -67 30 5 16 33 14 29 -3 -3 -12 0
-12 12 -2 9 7 24 10 33 7 12 -5 15 -4 8 3 -5 5 -29 13 -53 17 -33 5 -42 4 -40
-7 2 -8 -7 -15 -19 -17 -26 -4 -31 13 -8 22 18 7 20 24 3 22 -7 0 -13 4 -13 9
0 6 5 9 10 9 6 -1 28 -4 50 -8 26 -3 18 0 -20 11 -33 9 -62 19 -65 22 -3 3
-11 6 -17 6 -7 0 -13 4 -12 8 0 5 -12 17 -26 29 -19 14 -36 19 -62 16 -36 -4
-79 6 -118 29 -39 22 -5 26 50 5 30 -12 55 -17 55 -12 0 4 -29 18 -65 30 -36
12 -67 25 -70 30 -3 5 15 2 40 -7 25 -8 48 -13 51 -11 2 3 -15 11 -38 18 l-43
13 40 19 c30 14 33 18 12 13 -18 -3 -26 -1 -25 6 2 7 -20 26 -49 42 -29 17
-50 33 -48 37 2 4 -13 6 -33 4 -50 -3 -50 -3 -22 -19 14 -8 32 -12 41 -9 9 2
37 -7 62 -22 45 -25 63 -42 32 -30 -8 3 -15 1 -15 -5 0 -6 -5 -7 -11 -4 -6 4
-23 8 -38 9 -36 3 -84 33 -75 48 5 7 2 9 -8 6 -17 -7 -84 29 -74 39 3 3 15 -2
26 -12 20 -18 21 -18 38 0 9 10 11 14 4 10 -22 -12 -69 42 -113 127 -21 43
-39 85 -39 94 0 13 -3 14 -14 5 -12 -10 -12 -19 0 -59 8 -26 27 -66 43 -89 27
-38 28 -41 10 -46 -10 -3 -28 4 -40 14 -12 10 -27 19 -33 19 -15 0 -69 97 -61
110 3 6 16 0 28 -13 12 -13 16 -16 10 -7 -7 9 -17 41 -22 71 -8 46 -9 48 -8
14 0 -22 -2 -46 -7 -53 -12 -20 -26 -14 -26 12 0 14 -4 27 -9 30 -5 4 -7 -3
-4 -14 3 -11 0 -20 -6 -20 -6 0 -11 8 -11 19 0 10 -7 34 -15 52 l-16 34 6 -35
c5 -27 4 -32 -5 -20 -10 13 -11 13 -7 0 2 -8 9 -14 15 -13 5 1 14 -20 19 -47
8 -42 7 -50 -8 -64 -18 -15 -18 -13 -15 27 2 23 1 29 -1 13 -4 -23 -7 -26 -14
-15 -7 10 -8 6 -3 -13 8 -34 -11 -38 -22 -5 -7 21 -7 21 -15 2 l-8 -20 -2 20
c-1 11 -2 34 -2 50 0 17 -6 33 -11 37 -7 5 -7 8 2 8 10 0 10 5 1 21 -6 12 -9
37 -6 55 5 28 3 32 -11 27 -34 -12 -40 -24 -36 -66 2 -23 0 -55 -5 -72 -8 -27
-9 -25 -10 23 -1 30 -5 51 -10 47 -14 -8 5 52 26 84 9 14 18 31 19 38 3 18 53
80 70 87 16 6 19 -9 4 -19 -5 -3 -15 -16 -21 -28 -7 -12 6 -2 29 23 22 25 62
56 88 70 27 14 63 36 81 50 28 21 30 26 15 31 -9 3 2 6 26 6 23 0 41 -1 40 -3
-2 -1 -38 -25 -79 -52 -42 -28 -80 -55 -84 -62 -9 -15 31 8 63 36 41 37 170
103 213 110 24 4 36 10 29 14 -7 4 -10 14 -7 21 3 9 11 0 20 -21 8 -19 14 -36
13 -38 -2 -1 -16 -4 -32 -5 -16 -2 -43 -12 -59 -21 -27 -15 -16 -15 24 2 10 4
12 1 6 -7 -4 -8 4 -6 19 4 14 9 32 15 40 12 8 -3 16 0 19 6 5 15 141 52 155
43 6 -3 13 1 16 10 3 8 11 12 16 9 6 -4 10 -3 9 2 -3 19 5 21 74 17 39 -3 89
-5 110 -4z m250 -3 c53 -7 41 -18 -13 -13 -30 2 -65 5 -78 5 -14 1 -21 5 -16
12 4 7 21 9 43 5 20 -3 48 -8 64 -9z m150 2 c7 0 3 -4 -8 -8 -26 -10 -62 -2
-43 10 7 5 19 7 26 4 8 -3 19 -5 25 -6z m114 -5 c-3 -3 -12 -4 -19 -1 -8 3 -5
6 6 6 11 1 17 -2 13 -5z m-738 -8 c-10 -10 -79 -15 -79 -6 0 6 19 10 42 10 23
0 39 -2 37 -4z m-309 -26 c0 -5 -8 -10 -17 -10 -15 0 -16 2 -3 10 19 12 20 12
20 0z m1033 -1 c7 0 2 -4 -11 -9 -27 -11 -61 -2 -40 11 7 5 19 7 26 4 8 -3 19
-5 25 -6z m78 -8 c-11 -7 -3 -12 30 -21 24 -7 49 -15 54 -20 17 -12 55 -19 55
-8 0 5 5 6 10 3 17 -10 1 -25 -26 -25 -14 0 -23 -4 -20 -9 10 -15 -22 -21 -34
-7 -8 10 -6 15 6 20 29 11 9 16 -24 6 -20 -5 -30 -5 -27 1 8 12 -20 41 -37 38
-27 -3 -48 1 -48 10 0 8 14 13 65 19 6 1 4 -2 -4 -7z m-1283 -78 c-23 -13 -53
-34 -65 -45 -11 -11 -29 -18 -40 -16 -14 3 -10 9 22 31 30 20 35 27 20 27 -19
1 -19 1 -2 11 10 6 25 8 33 5 9 -3 25 1 36 9 12 8 25 12 31 8 5 -3 -11 -16
-35 -30z m1362 -42 c0 -5 3 -18 6 -28 6 -16 5 -16 -9 2 -19 23 -21 35 -7 35 6
0 10 -4 10 -9z m-1500 -16 c-7 -8 -17 -15 -22 -15 -6 0 -5 7 2 15 7 8 17 15
22 15 6 0 5 -7 -2 -15z m-58 -35 c-22 -18 -15 -38 11 -25 6 4 3 -2 -9 -12 -11
-10 -19 -23 -17 -30 2 -6 -7 -24 -21 -39 -19 -22 -25 -25 -26 -12 0 9 7 23 15
32 23 23 18 42 -5 21 -19 -17 -20 -17 -14 -2 3 10 15 22 25 28 11 5 17 15 13
20 -3 6 2 17 12 24 28 22 42 17 16 -5z m-86 -28 c-17 -16 -18 -16 -5 5 7 12
15 20 18 17 3 -2 -3 -12 -13 -22z m2014 8 c8 -5 11 -10 5 -10 -5 0 -17 5 -25
10 -8 5 -10 10 -5 10 6 0 17 -5 25 -10z m-2034 -56 c-4 -9 -9 -15 -11 -12 -3
3 -3 13 1 22 4 9 9 15 11 12 3 -3 3 -13 -1 -22z m2114 -9 c11 -13 10 -14 -4
-9 -9 3 -16 10 -16 15 0 13 6 11 20 -6z m41 -22 c13 -16 12 -17 -3 -4 -10 7
-18 15 -18 17 0 8 8 3 21 -13z m-2170 -30 c-12 -20 -14 -14 -5 12 4 9 9 14 11
11 3 -2 0 -13 -6 -23z m39 -12 c0 -6 -4 -13 -10 -16 -5 -3 -10 1 -10 9 0 9 5
16 10 16 6 0 10 -4 10 -9z m24 -6 c-4 -8 -8 -15 -10 -15 -2 0 -4 7 -4 15 0 8
4 15 10 15 5 0 7 -7 4 -15z m78 -45 c2 -37 -1 -61 -8 -64 -6 -2 -9 -18 -6 -35
3 -20 0 -31 -8 -31 -9 0 -10 20 -5 83 5 45 8 88 8 95 0 6 4 12 8 12 4 0 9 -27
11 -60z m2082 14 c7 -19 2 -18 -19 6 -16 17 -16 20 -3 15 9 -4 19 -13 22 -21z
m-2184 -1 c0 -5 -5 -15 -10 -23 -8 -12 -10 -11 -10 8 0 12 5 22 10 22 6 0 10
-3 10 -7z m2169 -20 c20 -16 40 -27 44 -25 5 1 6 -2 3 -7 -11 -17 -49 -3 -80
29 -39 38 -16 40 33 3z m-2249 -13 c0 -5 -5 -10 -11 -10 -5 0 -7 5 -4 10 3 6
8 10 11 10 2 0 4 -4 4 -10z m94 -32 c-3 -24 -10 -47 -14 -52 -5 -5 -5 9 0 30
5 22 9 40 10 42 0 1 0 7 0 12 0 6 2 10 5 10 2 0 2 -19 -1 -42z m-44 10 c0 -7
-5 -20 -10 -28 -8 -12 -10 -9 -10 13 0 15 5 27 10 27 6 0 10 -6 10 -12z m-55
-28 c0 -16 -3 -30 -7 -30 -5 0 -8 14 -8 30 0 17 3 30 8 30 4 0 7 -13 7 -30z
m487 -85 c-6 -9 -24 28 -36 75 -4 14 4 5 18 -20 13 -25 21 -49 18 -55z m1803
85 c3 -5 1 -10 -4 -10 -6 0 -11 5 -11 10 0 6 2 10 4 10 3 0 8 -4 11 -10z
m-1946 -64 c6 -7 8 -16 4 -19 -3 -4 -1 -7 5 -7 15 0 15 13 1 27 -6 6 -9 17 -7
23 2 6 11 -5 21 -25 10 -20 13 -34 8 -31 -5 4 -11 0 -14 -6 -9 -26 -40 20 -43
64 -3 37 -2 39 6 15 5 -16 13 -34 19 -41z m-223 17 c-11 -11 -17 4 -9 23 7 18
8 18 11 1 2 -10 1 -21 -2 -24z m198 -38 c3 -8 1 -15 -3 -15 -5 0 -11 7 -15 15
-3 8 -1 15 3 15 5 0 11 -7 15 -15z m2061 -42 c4 -14 2 -23 -4 -23 -6 0 -11 6
-11 14 0 8 -3 23 -6 33 -5 12 -4 15 3 8 6 -5 14 -20 18 -32z m-2402 6 c-6 -6
-19 -9 -29 -6 -17 3 -16 5 6 14 28 12 39 8 23 -8z m37 1 c-12 -8 -12 -10 -1
-10 8 0 12 -3 8 -6 -9 -9 -28 6 -22 17 4 5 12 9 18 9 7 0 6 -4 -3 -10z m137 4
c-3 -3 -12 -4 -19 -1 -8 3 -5 6 6 6 11 1 17 -2 13 -5z m120 0 c-3 -3 -12 -4
-19 -1 -8 3 -5 6 6 6 11 1 17 -2 13 -5z m-362 -14 c-3 -5 -12 -7 -20 -3 -21 7
-19 13 6 13 11 0 18 -4 14 -10z m195 -4 c19 1 47 5 61 8 18 5 31 3 40 -7 7 -8
23 -12 34 -9 16 5 18 3 8 -9 -8 -10 -25 -13 -52 -11 -23 2 -39 7 -37 11 2 3
-25 6 -60 5 -35 0 -64 3 -64 7 0 10 24 18 30 9 3 -3 21 -6 40 -4z m2263 -39
c-8 -13 -23 3 -23 26 0 20 0 20 14 2 8 -11 12 -23 9 -28z m-2498 23 c-3 -5
-12 -10 -18 -10 -7 0 -6 4 3 10 19 12 23 12 15 0z m540 -8 c-3 -3 -11 0 -18 7
-9 10 -8 11 6 5 10 -3 15 -9 12 -12z m-590 -2 c-3 -5 -16 -10 -28 -9 -21 0
-21 1 -2 9 28 12 37 12 30 0z m120 0 c-3 -5 -13 -10 -21 -10 -8 0 -12 5 -9 10
3 6 13 10 21 10 8 0 12 -4 9 -10z m52 4 c-3 -3 -12 -4 -19 -1 -8 3 -5 6 6 6
11 1 17 -2 13 -5z m342 -9 c-10 -11 -25 -13 -47 -9 -43 9 -30 24 21 24 37 0
40 -2 26 -15z m-589 -5 c-8 -5 -22 -9 -30 -9 -10 0 -8 3 5 9 27 12 43 12 25 0z
m437 -12 c7 -6 28 -7 47 -4 40 8 89 -2 80 -15 -3 -5 2 -9 11 -9 21 0 151 -65
193 -97 26 -20 36 -22 47 -13 12 10 18 10 30 0 10 -8 15 -9 15 -2 0 6 7 9 15
5 9 -3 14 -8 11 -11 -6 -6 -80 -14 -116 -12 -39 1 -120 -21 -180 -49 -72 -33
-144 -106 -207 -210 l-52 -83 -4 48 c-3 42 -4 39 -4 -16 -1 -36 -8 -83 -16
-106 -8 -22 -20 -66 -27 -97 -10 -50 -13 -55 -28 -46 -16 10 -62 70 -71 94 -2
6 5 3 15 -6 40 -33 48 -31 14 5 -19 20 -36 32 -38 26 -2 -5 -11 -10 -19 -10
-13 0 -13 3 -3 15 15 18 -1 20 -18 3 -10 -10 -17 -10 -32 0 -13 8 -21 8 -25 1
-4 -5 -14 -9 -23 -7 -10 2 -26 -5 -37 -14 -19 -18 -20 -17 -47 14 -15 18 -28
38 -28 45 0 17 17 25 24 11 4 -7 4 -3 2 10 -2 12 -2 22 1 22 3 0 14 -10 24
-22 l20 -23 -11 23 c-9 18 -8 22 4 22 8 0 17 -6 19 -12 3 -7 6 -3 6 10 1 20 3
21 21 10 26 -17 25 -26 -5 -40 -34 -15 -32 -30 3 -17 15 5 33 12 40 14 11 4
10 9 -2 27 -21 29 -20 35 4 41 11 3 20 10 20 17 0 6 -6 8 -12 4 -7 -4 -4 2 6
14 31 35 33 32 56 -57 5 -21 5 -42 -1 -53 -8 -15 -5 -20 15 -27 13 -6 27 -15
31 -20 3 -6 11 -11 17 -11 6 0 4 8 -5 18 -20 22 -22 36 -4 27 6 -4 2 2 -11 12
-13 10 -26 34 -29 53 -3 19 -9 43 -15 53 -9 17 -7 39 9 92 5 18 4 18 -11 3 -9
-9 -16 -24 -16 -32 0 -9 -18 -24 -40 -35 -39 -19 -39 -19 -29 0 5 10 14 19 18
19 5 0 16 12 26 26 19 29 6 25 -31 -8 -13 -12 -24 -15 -28 -9 -4 5 2 16 12 23
11 7 22 23 26 36 4 13 17 27 29 32 17 7 18 9 5 9 -9 1 -24 -9 -32 -21 -12 -17
-16 -18 -16 -6 0 8 14 29 31 46 l31 31 -35 -17 c-19 -9 -33 -18 -32 -20 2 -2
-8 -14 -21 -27 -13 -13 -24 -32 -24 -42 1 -11 7 -4 16 16 17 41 23 38 17 -6
-4 -24 -10 -33 -25 -33 -10 0 -16 -4 -13 -10 3 -5 1 -10 -4 -10 -16 0 -13 30
9 78 22 49 14 55 -16 11 -16 -23 -20 -41 -18 -77 2 -26 1 -42 -3 -37 -11 14
-43 18 -43 5 0 -5 6 -10 14 -10 16 0 30 -43 16 -48 -6 -2 -7 -9 -3 -15 4 -7
-5 -4 -20 6 -35 23 -37 22 -26 -15 12 -44 3 -48 -16 -7 -16 33 -15 13 1 -26 7
-18 6 -19 -11 -5 -17 14 -18 13 -12 -2 3 -10 2 -18 -3 -18 -9 0 -14 24 -7 33
6 9 -28 37 -39 33 -23 -9 -26 12 -3 24 14 8 18 15 11 22 -6 6 -8 27 -6 47 4
29 2 32 -6 16 -9 -19 -10 -19 -7 -1 1 11 10 20 20 22 13 2 17 -5 17 -27 0 -16
-5 -29 -11 -29 -5 0 -8 -4 -4 -10 3 -5 12 -7 20 -3 10 3 15 -1 16 -13 1 -17 2
-17 6 -1 6 23 12 22 45 -10 15 -15 28 -22 28 -16 0 5 -9 18 -20 28 -20 18 -28
51 -10 40 6 -3 14 4 19 17 6 13 10 16 11 8 0 -13 1 -13 10 0 12 19 13 33 2 26
-5 -3 -9 8 -9 25 0 16 3 26 6 21 3 -6 12 -4 19 4 8 9 9 14 2 14 -7 0 -7 7 1
23 11 20 10 20 -12 -3 -38 -40 -58 -76 -55 -96 2 -11 1 -13 -1 -6 -7 18 -20
15 -19 -5 1 -10 -3 -19 -8 -20 -5 -1 -13 -7 -17 -15 -6 -8 -8 -1 -8 22 1 19 3
27 6 18 2 -10 9 -18 14 -18 5 0 7 10 4 23 -3 12 3 38 14 59 10 21 14 35 9 32
-6 -4 -17 -22 -24 -41 -12 -27 -18 -32 -29 -23 -10 8 -14 8 -18 -2 -2 -7 -8
-10 -12 -6 -4 4 -2 15 6 24 12 14 14 14 26 -2 14 -20 18 -7 4 15 -5 7 -13 11
-19 7 -6 -3 -12 -1 -14 5 -4 11 -20 -18 -32 -54 -3 -10 -10 -16 -15 -12 -6 3
-5 18 3 38 13 30 60 64 96 68 8 1 42 31 75 68 l59 66 -64 -62 c-37 -35 -77
-64 -92 -67 -15 -2 -32 -7 -38 -11 -15 -9 -12 7 6 33 18 26 39 29 30 5 -4 -10
7 -3 24 15 31 34 38 48 18 36 -17 -11 -59 -13 -52 -3 3 5 9 7 14 4 5 -3 11 -1
14 4 3 4 23 11 45 15 22 3 44 12 48 19 4 7 21 20 36 30 32 21 58 13 30 -9 -15
-12 -13 -12 17 0 19 8 36 21 38 28 3 15 68 33 160 47 43 6 55 4 62 -8 11 -18
13 -10 4 12 -4 11 -16 14 -42 10 -20 -3 -50 1 -67 8 l-30 12 35 7 c49 9 192 1
207 -12z m30 6 c-3 -3 -12 -4 -19 -1 -8 3 -5 6 6 6 11 1 17 -2 13 -5z m2209
-12 c1 -7 0 -8 -3 -2 -2 5 -9 10 -14 10 -6 0 -7 -5 -3 -12 4 -6 3 -8 -3 -5
-19 12 -21 -30 -2 -54 20 -26 26 -75 8 -63 -8 4 -9 -1 -4 -17 5 -19 4 -21 -4
-9 -8 11 -11 12 -11 2 0 -7 -5 -10 -11 -6 -8 5 -8 9 1 14 7 4 9 13 5 20 -5 9
-4 11 3 6 26 -16 4 59 -22 76 -8 5 -7 8 2 8 6 0 12 5 12 11 0 5 -6 7 -12 3 -7
-4 -4 2 7 14 22 23 47 25 51 4z m-2556 4 c0 -9 -40 -13 -46 -5 -3 5 6 9 20 9
14 0 26 -2 26 -4z m44 -5 c3 -5 15 -7 25 -4 10 3 22 0 25 -6 4 -7 -2 -12 -16
-12 -43 -3 -53 -5 -80 -17 -15 -6 -37 -8 -50 -5 -13 3 -33 5 -46 5 -21 0 -22
1 -5 13 12 9 20 10 24 3 4 -6 12 -7 19 -3 7 5 28 8 46 7 19 -1 33 2 33 6 -4
22 14 31 25 13z m521 -23 c15 -17 46 -41 68 -53 65 -33 70 -36 59 -47 -6 -6
-24 0 -49 19 -22 15 -63 39 -91 52 -29 14 -52 28 -52 32 0 5 8 5 17 2 12 -5
15 -2 10 10 -10 27 9 20 38 -15z m-701 -8 c-6 -6 -24 -13 -40 -15 -27 -5 -28
-4 -10 10 23 17 66 21 50 5z m2726 -56 c0 -18 -4 -36 -10 -39 -6 -3 -7 1 -4
10 3 8 -1 34 -11 57 l-17 43 21 -19 c13 -12 21 -31 21 -52z m-2805 46 c-3 -5
-12 -10 -18 -10 -7 0 -6 4 3 10 19 12 23 12 15 0z m2775 -33 c0 -5 -4 -5 -10
-2 -5 3 -10 14 -10 23 0 15 2 15 10 2 5 -8 10 -19 10 -23z m-2650 8 c-14 -7
-29 -10 -34 -5 -5 5 -16 6 -25 3 -10 -3 -12 -2 -4 4 6 4 29 9 50 10 37 2 38 2
13 -12z m-94 -4 c-7 -11 -56 -21 -56 -10 0 9 19 17 43 18 10 1 16 -3 13 -8z
m159 -1 c-3 -5 -11 -10 -16 -10 -6 0 -7 5 -4 10 3 6 11 10 16 10 6 0 7 -4 4
-10z m-105 -18 c0 -15 -24 -32 -44 -31 -21 0 -21 0 -1 9 11 5 16 9 10 9 -5 1
-3 6 5 11 18 12 30 13 30 2z m864 -13 c-6 -11 -24 -2 -24 11 0 5 7 7 15 4 8
-4 12 -10 9 -15z m-1014 7 c0 -2 -7 -7 -16 -10 -8 -3 -12 -2 -9 4 6 10 25 14
25 6z m45 -16 c-28 -12 -47 -12 -40 0 3 6 18 10 33 9 24 0 25 -1 7 -9z m2848
-50 c-7 -42 -13 -35 -12 16 0 35 3 43 8 29 5 -11 6 -31 4 -45z m-2923 31 c0
-5 -7 -12 -16 -15 -14 -5 -15 -4 -4 9 14 17 20 19 20 6z m59 -5 c-2 -2 -20
-11 -39 -20 l-35 -17 24 21 c13 11 30 20 39 20 8 0 13 -2 11 -4z m2631 -25 c0
-9 -24 -21 -43 -21 -6 0 -2 7 9 15 22 17 34 19 34 6z m84 -15 c-1 -9 4 -16 12
-16 8 0 14 -4 14 -10 0 -5 -5 -10 -11 -10 -6 0 -8 -8 -5 -17 4 -11 -2 -8 -14
7 -17 21 -19 22 -14 5 5 -17 3 -16 -16 5 -12 14 -18 19 -14 11 5 -10 3 -12 -6
-6 -7 4 -1 -10 14 -31 31 -46 34 -70 5 -34 -21 25 -21 25 -38 5 -17 -22 -81
-33 -81 -15 0 6 8 10 18 9 36 -3 53 1 46 13 -4 6 -3 8 3 5 6 -4 13 0 17 8 3 9
0 15 -9 15 -8 0 -15 4 -15 9 0 14 50 42 62 35 7 -4 8 -3 4 4 -4 7 -4 17 -1 23
10 15 30 5 29 -15z m-2749 -5 c-3 -6 -19 -18 -36 -26 -40 -21 -38 0 3 25 33
20 45 20 33 1z m1141 -9 c-4 -3 -14 2 -24 12 -16 18 -16 18 6 6 13 -6 21 -14
18 -18z m1649 18 c3 -5 1 -10 -4 -10 -6 0 -11 5 -11 10 0 6 2 10 4 10 3 0 8
-4 11 -10z m75 0 c0 -5 -5 -10 -11 -10 -5 0 -7 5 -4 10 3 6 8 10 11 10 2 0 4
-4 4 -10z m-2925 -10 c-3 -5 -16 -15 -28 -21 -22 -12 -22 -12 -3 10 19 21 43
30 31 11z m1035 -9 c5 -11 11 -31 12 -44 1 -14 11 -30 21 -37 18 -11 19 -9 13
25 -4 20 -10 43 -13 51 -3 8 -1 14 5 14 13 0 29 -20 35 -45 3 -14 5 -12 6 10
1 37 19 22 37 -32 16 -45 1 -59 -52 -52 -4 0 -10 -3 -13 -8 -9 -12 -91 -64
-91 -57 0 3 -12 -8 -26 -26 -21 -24 -29 -28 -40 -19 -12 10 -13 9 -8 -5 4 -9
-6 -35 -24 -63 -17 -27 -40 -77 -52 -113 -12 -36 -25 -69 -28 -75 -4 -5 -8
-26 -8 -45 -6 -152 -9 -180 -16 -180 -4 0 -8 -8 -8 -17 0 -14 2 -15 9 -5 5 9
11 -5 15 -40 12 -96 40 -227 46 -223 4 2 12 -11 18 -30 6 -20 6 -35 1 -35 -5
0 -9 10 -9 22 0 12 -3 19 -6 16 -3 -3 0 -30 6 -59 6 -30 11 -65 11 -79 l0 -25
11 28 c5 15 14 24 20 21 7 -4 8 -2 4 5 -4 6 -12 9 -17 6 -5 -4 -9 8 -9 25 0
36 23 37 28 2 2 -12 7 -22 12 -22 17 0 43 -61 31 -73 -14 -14 -14 -30 -1 -22
12 8 13 -15 1 -34 -7 -11 -12 -3 -21 28 -6 23 -15 39 -20 36 -6 -4 -10 1 -10
10 0 10 5 13 12 9 7 -5 8 -3 3 5 -5 9 -10 10 -18 2 -7 -7 -2 -27 16 -64 15
-29 30 -69 34 -88 6 -31 5 -33 -10 -20 -9 7 -17 23 -17 35 0 11 -7 30 -15 40
-14 18 -14 16 -9 -24 l6 -43 -26 26 c-31 31 -38 34 -30 12 12 -30 -17 -14 -30
16 -8 20 -15 27 -18 18 -3 -8 -12 6 -21 31 -14 37 -16 39 -11 11 4 -22 3 -31
-4 -27 -6 3 -14 25 -18 49 -4 23 -9 45 -10 50 -1 4 -2 16 -3 28 0 11 -5 18
-10 15 -5 -3 -8 -14 -6 -24 2 -9 6 -33 9 -52 5 -33 5 -34 -9 -16 -8 11 -15 29
-15 40 0 12 -5 28 -10 36 -7 11 -8 5 -4 -20 l6 -35 -21 30 c-11 17 -21 38 -21
48 0 10 -4 16 -10 12 -5 -3 -16 16 -24 42 -8 26 -15 41 -16 33 -2 -21 -29 40
-30 68 0 13 -3 21 -7 19 -7 -4 -8 75 -3 93 5 15 -3 76 -11 78 -5 2 -9 10 -9
18 0 9 3 13 8 10 4 -2 5 14 3 37 l-5 42 -7 -35 c-5 -28 -7 -30 -8 -10 -2 23
-3 24 -11 5 -6 -14 -8 1 -7 46 1 48 5 62 13 55 8 -7 9 -19 3 -34 -12 -30 -11
-32 4 -27 7 3 13 28 14 63 2 42 0 53 -8 42 -8 -12 -9 -10 -5 10 3 14 6 43 7
65 1 27 3 32 6 16 4 -19 7 -21 14 -10 7 10 8 4 5 -19 -2 -18 0 -30 5 -26 12 7
12 51 0 58 -5 3 -7 15 -4 25 3 10 0 22 -6 26 -12 7 16 65 31 65 4 0 8 15 9 33
0 17 3 26 6 19 4 -10 9 -8 20 7 8 12 12 25 9 30 -3 5 3 20 14 32 l19 24 1 -42
c0 -55 15 -64 16 -10 2 76 4 87 14 87 6 0 11 -12 12 -27 0 -18 3 -12 7 16 3
25 11 46 18 48 8 3 10 -6 7 -26 -3 -16 0 -32 6 -36 5 -3 10 -19 10 -35 0 -16
4 -31 8 -34 5 -3 6 16 1 42 -10 69 -5 116 15 120 16 3 23 -23 8 -30 -5 -1 -1
-28 8 -58 l16 -55 -4 81 c-3 53 -1 84 6 88 7 4 14 -4 18 -21 10 -49 12 -49 13
0 1 52 20 65 22 15 l2 -33 7 35 7 35 3 -45 c1 -25 6 -58 11 -75 6 -23 7 -16 4
25 -2 30 -1 46 2 36 4 -14 7 -16 13 -6 4 7 4 25 0 40 -6 23 -5 27 8 26 9 -2
21 -20 27 -42 l12 -39 4 40 4 40 16 -29 16 -30 -3 42 c-3 45 9 55 26 23z
m1850 -22 c0 -5 -4 -9 -10 -9 -5 0 -10 7 -10 16 0 8 5 12 10 9 6 -3 10 -10 10
-16z m-2830 -8 c0 -5 -9 -19 -20 -32 -17 -21 -19 -21 -13 -4 5 16 1 15 -20 -7
-14 -16 -29 -28 -32 -28 -13 0 -3 23 21 47 21 21 28 23 34 12 7 -11 10 -10 16
4 7 18 14 23 14 8z m1144 -34 c10 -28 2 -47 -13 -31 -5 5 -13 22 -17 38 -9 37
17 32 30 -7z m130 17 c26 -13 32 -20 23 -29 -7 -7 -18 -10 -26 -7 -9 3 -12 1
-7 -6 4 -7 3 -12 -3 -12 -15 0 -23 18 -9 22 7 3 2 13 -12 26 -28 26 -14 28 34
6z m1564 -19 c-3 -3 -9 2 -12 12 -6 14 -5 15 5 6 7 -7 10 -15 7 -18z m-1652
-32 c-4 -4 -11 -1 -16 7 -16 25 -11 35 7 17 9 -9 13 -20 9 -24z m-1297 -15
c-8 -14 -14 -18 -17 -10 -4 13 17 46 25 38 3 -2 -1 -15 -8 -28z m1491 9 c14
-5 20 -11 14 -14 -6 -2 -24 2 -40 8 -16 7 -32 12 -36 11 -5 -1 -8 3 -8 9 0 10
18 7 70 -14z m-1424 -13 c-4 -9 -9 -15 -11 -12 -3 3 -3 13 1 22 4 9 9 15 11
12 3 -3 3 -13 -1 -22z m-36 -14 c-6 -11 -15 -20 -21 -20 -6 0 -6 7 1 20 6 11
15 20 21 20 6 0 6 -7 -1 -20z m1420 10 c0 -5 -2 -10 -4 -10 -3 0 -8 5 -11 10
-3 6 -1 10 4 10 6 0 11 -4 11 -10z m82 -8 c-7 -2 -10 -8 -7 -12 3 -5 12 -7 20
-3 17 6 20 -13 4 -23 -7 -4 -16 1 -21 10 -5 9 -14 14 -19 10 -6 -3 -5 3 2 14
7 12 18 18 23 15 6 -4 5 -8 -2 -11z m1228 14 c0 -2 -7 -6 -15 -10 -8 -3 -15
-1 -15 4 0 6 7 10 15 10 8 0 15 -2 15 -4z m-1477 -43 c22 -2 49 -9 60 -15 10
-5 31 -7 45 -3 l27 6 -22 -16 c-14 -10 -32 -13 -50 -9 -18 3 -23 2 -15 -3 9
-7 -3 -16 -40 -34 -29 -13 -78 -49 -108 -79 -60 -59 -95 -131 -121 -254 l-13
-60 -13 30 c-6 16 -12 23 -13 16 0 -7 5 -23 12 -35 7 -12 13 -50 14 -85 3 -82
12 -171 19 -182 3 -5 -9 -11 -25 -15 -24 -5 -30 -11 -25 -25 5 -15 2 -17 -15
-13 -22 6 -26 18 -10 28 6 4 8 10 5 15 -3 5 4 7 15 5 13 -3 18 0 14 7 -5 8 -1
9 12 5 18 -7 18 -7 0 8 -22 17 -40 20 -32 6 8 -13 -25 -23 -38 -12 -7 6 -22 8
-34 4 -17 -4 -24 1 -32 22 -15 41 -13 49 13 33 29 -18 77 -39 77 -33 0 2 -20
16 -45 31 -25 14 -43 29 -40 32 3 3 11 0 17 -6 18 -18 33 -15 18 4 -12 13 -10
14 14 3 24 -11 26 -14 9 -20 -14 -5 -12 -7 12 -11 17 -3 39 -9 50 -13 11 -4
-2 8 -28 25 -51 35 -56 47 -13 31 38 -15 32 -6 -14 20 -39 22 -40 23 -19 35
l22 12 -24 7 c-13 4 -27 13 -31 19 -4 6 -6 -3 -4 -21 4 -29 -16 -75 -27 -63
-6 6 -11 55 -9 94 2 25 4 27 18 16 12 -11 15 -11 12 1 -2 8 -9 19 -17 25 -22
17 -8 132 25 204 33 74 49 89 63 61 15 -26 14 -61 -1 -61 -9 0 -9 -3 0 -12 14
-14 23 -7 25 21 1 11 8 21 15 21 9 0 5 7 -9 20 -23 18 -23 19 -4 21 16 1 16 2
-5 8 -38 11 -35 31 15 86 41 44 48 48 66 37 15 -9 24 -10 33 -3 7 6 15 9 18 6
2 -3 5 2 5 10 0 8 -4 12 -8 10 -3 -3 -12 2 -18 9 -18 21 31 28 104 16 72 -12
67 -12 61 -2 -2 4 -24 9 -48 11 -49 2 -53 4 -44 27 6 15 8 15 32 -1 15 -9 45
-19 67 -22z m1531 13 c-3 -9 -10 -13 -16 -10 -5 3 -4 12 3 20 15 18 22 13 13
-10z m-2809 -22 c9 3 12 0 8 -10 -7 -18 -11 -18 -29 1 -9 9 -12 20 -7 27 5 10
9 8 11 -5 2 -11 9 -16 17 -13z m46 3 c-10 -9 -11 -8 -5 6 3 10 9 15 12 12 3
-3 0 -11 -7 -18z m1324 13 c3 -5 2 -10 -4 -10 -5 0 -13 5 -16 10 -3 6 -2 10 4
10 5 0 13 -4 16 -10z m1395 6 c0 -2 -7 -7 -16 -10 -8 -3 -12 -2 -9 4 6 10 25
14 25 6z m153 -31 c-3 -9 -8 -14 -10 -11 -3 3 -2 9 2 15 9 16 15 13 8 -4z
m-2833 -14 c0 -23 -25 -47 -35 -31 -3 5 1 10 9 10 9 0 16 8 16 18 0 14 -2 15
-10 2 -5 -8 -12 -11 -17 -7 -4 5 -1 12 7 17 22 14 30 12 30 -9z m2693 -1 c3
-11 1 -18 -4 -14 -5 3 -9 12 -9 20 0 20 7 17 13 -6z m-1286 4 c-3 -3 -12 -4
-19 -1 -8 3 -5 6 6 6 11 1 17 -2 13 -5z m-1523 -19 c-4 -8 -8 -15 -10 -15 -2
0 -4 7 -4 15 0 8 4 15 10 15 5 0 7 -7 4 -15z m2676 5 c0 -5 -5 -10 -11 -10 -5
0 -7 5 -4 10 3 6 8 10 11 10 2 0 4 -4 4 -10z m-2635 -10 c-3 -5 -11 -10 -16
-10 -6 0 -7 5 -4 10 3 6 11 10 16 10 6 0 7 -4 4 -10z m1645 -11 c0 -5 4 -8 8
-5 4 2 14 1 22 -5 12 -7 11 -9 -6 -9 -12 0 -27 7 -34 15 -9 10 -9 15 -1 15 6
0 11 -5 11 -11z m937 -9 c1 -12 -4 -20 -13 -20 -8 0 -12 5 -9 10 3 6 1 10 -4
10 -6 0 -11 5 -11 10 0 20 36 10 37 -10z m333 10 c0 -5 -5 -10 -11 -10 -5 0
-7 5 -4 10 3 6 8 10 11 10 2 0 4 -4 4 -10z m-2893 -19 c0 -11 -6 -17 -14 -14
-16 6 -17 20 0 26 6 3 13 6 14 6 1 1 1 -8 0 -18z m1354 -26 c2 2 5 -8 6 -22 0
-14 6 -30 13 -37 8 -8 9 -6 4 9 -7 18 -6 19 10 6 13 -11 11 -2 -8 34 -29 54
-30 55 -16 55 5 0 21 -17 35 -37 14 -21 25 -34 25 -30 0 4 -7 19 -16 33 -23
33 -7 45 18 14 11 -14 32 -38 45 -55 l25 -30 -26 48 c-31 55 -17 63 26 15 25
-29 27 -30 12 -5 -9 15 -12 27 -7 27 12 0 73 -84 90 -122 7 -16 17 -28 23 -28
5 0 0 17 -13 38 -12 20 -28 51 -35 67 l-12 30 30 -35 c17 -19 28 -27 24 -17
-11 30 14 18 36 -18 23 -38 38 -48 19 -14 -9 17 -8 20 2 13 31 -19 59 -49 59
-63 0 -9 10 -27 21 -41 l21 -25 -17 29 c-9 16 -12 25 -6 22 6 -4 21 -26 32
-48 11 -22 15 -37 9 -33 -9 6 -9 2 -1 -13 6 -11 11 -24 11 -27 0 -7 -52 0
-118 17 -36 9 -47 9 -50 -1 -3 -8 -9 -6 -19 6 -13 16 -14 16 -9 1 4 -15 -2
-17 -37 -17 -23 0 -58 -3 -77 -7 -19 -4 -47 -7 -62 -8 -14 -1 -25 -3 -22 -5 4
-4 -27 -30 -37 -31 -4 0 -12 14 -19 30 -7 17 -15 29 -17 26 -2 -2 2 -18 11
-34 15 -29 15 -31 -12 -48 -36 -24 -58 -50 -88 -108 l-26 -50 -14 32 c-7 18
-16 32 -19 32 -3 0 0 -10 6 -22 8 -14 13 -77 14 -167 0 -92 5 -146 12 -148 5
-2 8 -15 5 -28 -3 -20 -1 -24 12 -19 12 5 16 0 16 -17 0 -19 -2 -21 -10 -9 -7
11 -9 3 -8 -28 1 -24 5 -37 9 -31 4 7 5 19 1 28 -3 9 -2 13 2 10 4 -4 11 -20
15 -37 8 -25 6 -29 -7 -27 -10 2 -20 4 -23 4 -4 1 -12 14 -19 31 -7 16 -15 28
-19 26 -4 -3 -7 3 -8 12 0 9 -6 33 -13 52 -7 19 -17 47 -23 62 -5 15 -14 25
-20 21 -5 -3 -7 -1 -4 5 9 13 -2 44 -13 37 -4 -2 -8 7 -9 20 -4 56 -6 63 -13
59 -4 -3 -8 7 -8 21 0 17 -4 24 -12 19 -7 -4 -8 -3 -4 4 4 6 0 25 -9 41 -19
38 -19 65 0 30 16 -29 48 -49 38 -24 -3 8 -10 12 -16 8 -7 -4 -8 0 -3 12 4 11
0 25 -10 36 -10 11 -13 19 -9 19 5 0 0 6 -10 14 -17 12 -17 16 -6 30 8 9 11
19 9 22 -3 3 -2 22 4 42 5 20 10 49 11 65 5 41 22 52 24 14 2 -25 0 -29 -8
-17 -8 12 -10 12 -7 1 2 -8 11 -15 20 -17 17 -2 18 13 3 81 l-6 30 15 -25 c17
-28 20 -23 7 13 -5 13 -6 29 -1 36 5 9 11 4 18 -16 5 -15 17 -37 25 -48 12
-15 11 -6 -4 39 -15 43 -17 62 -9 70 8 8 14 7 21 -4 7 -11 8 -7 4 15 l-6 30
25 -28 c28 -31 30 -30 17 5 -13 35 -13 42 3 44 10 1 13 -3 9 -14 -5 -11 -3
-13 7 -7 10 6 12 4 7 -9 -4 -10 -3 -15 3 -11 6 3 10 -1 10 -9 0 -8 4 -17 9
-20 5 -4 7 4 3 16 -3 14 -1 19 6 14 13 -8 6 20 -11 42 -7 9 -7 16 1 24 8 8 14
4 23 -15 16 -35 28 -34 21 1 -5 26 -4 26 14 10 19 -16 20 -16 20 2 0 10 -3 17
-6 15 -3 -2 -6 6 -6 17 0 19 2 18 22 -5 12 -14 24 -24 25 -22z m-1396 16 c-3
-6 3 -14 12 -20 15 -9 13 -10 -12 -9 -17 1 -37 -2 -44 -6 -9 -6 -12 -4 -9 5 3
8 15 20 29 26 29 15 32 16 24 4z m115 5 c0 -2 -7 -7 -16 -10 -8 -3 -12 -2 -9
4 6 10 25 14 25 6z m178 -21 c-3 -3 -9 2 -12 12 -6 14 -5 15 5 6 7 -7 10 -15
7 -18z m-368 11 c0 -3 -4 -8 -10 -11 -5 -3 -10 -1 -10 4 0 6 5 11 10 11 6 0
10 -2 10 -4z m404 -11 c3 -8 1 -15 -4 -15 -6 0 -10 7 -10 15 0 8 2 15 4 15 2
0 6 -7 10 -15z m1403 0 c3 -9 3 -19 -1 -22 -8 -9 -37 18 -30 28 8 14 24 11 31
-6z m83 5 c0 -5 -7 -10 -15 -10 -8 0 -15 5 -15 10 0 6 7 10 15 10 8 0 15 -4
15 -10z m693 -14 c6 -14 -1 -26 -14 -26 -4 0 -7 9 -6 20 1 23 12 26 20 6z
m112 4 c-3 -5 -12 -10 -20 -10 -8 0 -17 5 -20 10 -4 6 5 10 20 10 15 0 24 -4
20 -10z m-726 -26 c9 -10 -53 6 -63 17 -6 5 4 5 24 -1 18 -5 35 -12 39 -16z
m671 16 c0 -5 -4 -10 -10 -10 -5 0 -10 5 -10 10 0 6 5 10 10 10 6 0 10 -4 10
-10z m-2546 -25 c-3 -7 2 -19 10 -28 20 -20 20 -27 1 -27 -9 0 -15 -9 -15 -22
0 -13 -5 -30 -11 -38 -9 -12 -10 -11 -6 5 2 11 -1 26 -7 32 -23 25 -32 39 -39
58 -6 18 -6 18 6 3 8 -10 18 -13 26 -9 10 6 9 10 -3 14 -25 10 -9 35 19 29 14
-2 22 -9 19 -17z m1806 5 c0 -11 -51 -43 -58 -36 -3 3 0 6 6 6 6 0 9 7 6 15
-4 10 0 15 11 15 9 0 13 4 10 10 -3 6 1 7 9 4 9 -3 16 -10 16 -14z m110 0 c8
-5 11 -12 8 -16 -10 -9 -38 3 -38 16 0 12 10 13 30 0z m124 -6 c31 -30 13 -33
-24 -4 -19 15 -21 20 -8 20 9 0 24 -7 32 -16z m-1939 -4 c-3 -5 -11 -10 -16
-10 -6 0 -7 5 -4 10 3 6 11 10 16 10 6 0 7 -4 4 -10z m2365 -6 c0 -2 -12 -4
-26 -4 -14 0 -23 4 -20 9 6 8 46 4 46 -5z m-2341 -21 c0 -25 -1 -25 -8 -8 -5
11 -7 23 -4 28 8 14 13 7 12 -20z m1876 12 c44 -13 55 -18 55 -26 0 -12 -3
-11 -37 3 -15 6 -34 12 -42 12 -8 1 -16 7 -19 15 -3 10 0 12 14 7 11 -5 24 -9
29 -11z m85 -1 c0 -8 -4 -12 -10 -9 -5 3 -10 10 -10 16 0 5 5 9 10 9 6 0 10
-7 10 -16z m257 2 c-3 -7 0 -19 6 -25 8 -8 6 -11 -10 -11 -15 0 -20 6 -20 25
0 15 5 25 14 25 9 0 13 -6 10 -14z m273 4 c0 -5 -2 -10 -4 -10 -3 0 -8 5 -11
10 -3 6 -1 10 4 10 6 0 11 -4 11 -10z m-753 -20 c-1 -22 -5 -24 -27 -10 -12 8
-12 10 5 10 17 0 17 2 5 10 -13 8 -13 10 2 10 11 0 16 -7 15 -20z m256 6 c4
-10 1 -13 -9 -9 -7 3 -14 9 -14 14 0 14 17 10 23 -5z m296 -2 c2 -2 -10 -4
-27 -4 -18 0 -32 5 -32 10 0 9 47 4 59 -6z m-2508 -17 c-10 -9 -11 -8 -5 6 3
10 9 15 12 12 3 -3 0 -11 -7 -18z m204 -17 c7 -22 6 -23 -9 -11 -9 7 -16 23
-16 34 0 26 15 12 25 -23z m1800 30 c3 -6 -1 -7 -9 -4 -18 7 -21 14 -7 14 6 0
13 -4 16 -10z m-1834 -85 c-9 -17 -24 53 -15 72 6 14 9 9 14 -22 3 -22 4 -44
1 -50z m1909 63 c0 -13 -23 -5 -28 10 -2 7 2 10 12 6 9 -3 16 -11 16 -16z
m290 7 c0 -8 -2 -15 -4 -15 -2 0 -6 7 -10 15 -3 8 -1 15 4 15 6 0 10 -7 10
-15z m-180 -5 c8 -5 12 -11 10 -14 -3 -2 -14 2 -24 10 -22 15 -10 19 14 4z
m-1909 -27 c6 -16 12 -32 13 -38 5 -25 24 -47 35 -40 9 5 8 10 -5 19 -10 8
-13 16 -7 19 5 3 19 -7 31 -22 23 -31 19 -49 -6 -28 -13 10 -15 9 -9 -5 13
-34 -12 -17 -37 25 -25 43 -43 97 -32 97 4 0 11 -12 17 -27z m1724 17 c3 -6
-1 -7 -9 -4 -18 7 -21 14 -7 14 6 0 13 -4 16 -10z m145 -12 c0 -6 -7 -7 -16
-4 -9 3 -20 6 -25 6 -5 0 -9 4 -9 9 0 4 11 6 25 3 14 -2 25 -9 25 -14z m75 12
c3 -5 1 -10 -4 -10 -6 0 -11 5 -11 10 0 6 2 10 4 10 3 0 8 -4 11 -10z m-2105
-21 c0 -6 -4 -7 -10 -4 -5 3 -10 11 -10 16 0 6 5 7 10 4 6 -3 10 -11 10 -16z
m2150 11 c0 -5 -4 -10 -10 -10 -5 0 -10 5 -10 10 0 6 5 10 10 10 6 0 10 -4 10
-10z m-2015 -20 c3 -5 1 -10 -4 -10 -6 0 -11 5 -11 10 0 6 2 10 4 10 3 0 8 -4
11 -10z m1945 0 c0 -5 -2 -10 -4 -10 -3 0 -8 5 -11 10 -3 6 -1 10 4 10 6 0 11
-4 11 -10z m17 -12 c-3 -8 -6 -5 -6 6 -1 11 2 17 5 13 3 -3 4 -12 1 -19z m103
12 c0 -5 -4 -10 -10 -10 -5 0 -10 5 -10 10 0 6 5 10 10 10 6 0 10 -4 10 -10z
m-177 -14 c4 -10 1 -13 -8 -9 -8 3 -12 9 -9 14 7 12 11 11 17 -5z m207 4 c0
-5 -4 -10 -10 -10 -5 0 -10 5 -10 10 0 6 5 10 10 10 6 0 10 -4 10 -10z m-1895
-10 c-3 -5 -13 -10 -21 -10 -8 0 -14 -5 -14 -11 0 -5 -5 -7 -11 -4 -6 5 -4 12
8 21 21 16 47 19 38 4z m1986 -18 c-7 -2 -18 1 -23 6 -8 8 -4 9 13 5 13 -4 18
-8 10 -11z m-2387 -8 c3 -8 2 -12 -4 -9 -6 3 -10 10 -10 16 0 14 7 11 14 -7z
m49 -4 c-3 -11 -9 -20 -14 -20 -14 0 -11 28 4 33 6 3 13 6 14 6 0 1 -1 -8 -4
-19z m144 -2 c-3 -8 -6 -5 -6 6 -1 11 2 17 5 13 3 -3 4 -12 1 -19z m260 5 c14
-17 14 -17 9 0 -7 23 7 22 28 -2 11 -12 14 -21 7 -26 -6 -3 -11 -1 -11 4 0 6
-5 11 -11 11 -8 0 -8 -5 1 -15 7 -8 17 -15 22 -15 6 0 24 -12 41 -26 25 -21
31 -33 28 -58 -4 -43 -9 -48 -32 -35 -12 6 -18 13 -15 16 3 3 11 2 19 -3 7 -5
5 -2 -5 7 -21 20 -12 34 11 17 9 -7 5 0 -8 15 -14 15 -29 27 -35 26 -6 0 -5
-3 2 -6 6 -2 12 -9 12 -15 0 -6 -7 -8 -15 -4 -8 3 -15 0 -15 -7 0 -7 -11 2
-25 18 -13 17 -24 24 -25 18 0 -23 -19 -13 -44 23 -22 33 -23 38 -10 52 14 13
19 11 47 -15 18 -16 41 -36 51 -44 16 -11 16 -8 -4 18 -12 18 -29 34 -37 37
-7 3 -13 10 -13 16 0 15 11 12 27 -7z m-313 -8 c-4 -8 -8 -15 -10 -15 -2 0 -4
7 -4 15 0 8 4 15 10 15 5 0 7 -7 4 -15z m196 5 c0 -5 -2 -10 -4 -10 -3 0 -8 5
-11 10 -3 6 -1 10 4 10 6 0 11 -4 11 -10z m1757 4 c-3 -3 -12 -4 -19 -1 -8 3
-5 6 6 6 11 1 17 -2 13 -5z m173 -24 c0 -5 -4 -10 -10 -10 -5 0 -10 5 -10 10
0 6 5 10 10 10 6 0 10 -4 10 -10z m35 0 c3 -5 -1 -10 -10 -10 -9 0 -13 5 -10
10 3 6 8 10 10 10 2 0 7 -4 10 -10z m-2280 -9 c3 -5 1 -12 -5 -16 -5 -3 -10 1
-10 9 0 18 6 21 15 7z m85 -7 c0 -8 -4 -12 -10 -9 -5 3 -10 10 -10 16 0 5 5 9
10 9 6 0 10 -7 10 -16z m1905 -2 c-3 -3 -11 0 -18 7 -9 10 -8 11 6 5 10 -3 15
-9 12 -12z m-1637 -11 c3 -8 -1 -12 -9 -9 -7 2 -15 10 -17 17 -3 8 1 12 9 9 7
-2 15 -10 17 -17z m1802 -1 c0 -5 -9 -6 -20 -3 -11 3 -20 9 -20 13 0 5 9 6 20
3 11 -3 20 -9 20 -13z m-1796 -61 c-8 -14 -35 3 -30 18 4 10 1 13 -13 8 -23
-7 -34 6 -25 30 6 14 12 11 40 -16 18 -18 31 -36 28 -40z m1691 61 c3 -5 1
-10 -4 -10 -6 0 -11 5 -11 10 0 6 2 10 4 10 3 0 8 -4 11 -10z m-1811 -13 c4 4
4 -1 0 -10 -4 -11 -13 -16 -21 -13 -8 3 -24 1 -36 -6 -20 -10 -20 -9 3 15 16
17 29 22 36 16 6 -5 14 -6 18 -2z m1614 -12 c-3 -3 -9 2 -12 12 -6 14 -5 15 5
6 7 -7 10 -15 7 -18z m-1698 -5 c0 -5 -2 -10 -4 -10 -3 0 -8 5 -11 10 -3 6 -1
10 4 10 6 0 11 -4 11 -10z m220 0 c0 -5 -2 -10 -4 -10 -3 0 -8 5 -11 10 -3 6
-1 10 4 10 6 0 11 -4 11 -10z m-95 -18 c-3 -3 -11 0 -18 7 -9 10 -8 11 6 5 10
-3 15 -9 12 -12z m168 -35 c-2 -4 -9 -4 -15 -1 -7 4 -8 2 -4 -4 5 -9 14 -8 31
4 29 19 41 3 15 -21 -19 -17 -21 -17 -39 -1 -11 10 -17 24 -14 32 3 8 0 14 -6
14 -6 0 -11 -5 -11 -12 0 -6 -3 -8 -6 -5 -4 4 -1 13 6 22 12 14 15 14 30 -2
10 -10 15 -21 13 -26z m1142 33 c-3 -5 -12 -10 -18 -10 -7 0 -6 4 3 10 19 12
23 12 15 0z m-1385 -10 c0 -5 -4 -10 -10 -10 -5 0 -10 5 -10 10 0 6 5 10 10
10 6 0 10 -4 10 -10z m65 -10 c10 -11 15 -23 12 -27 -4 -3 -7 -1 -7 6 0 7 -5
9 -12 5 -7 -4 -8 -3 -4 4 4 7 1 12 -8 12 -9 0 -16 5 -16 10 0 16 15 12 35 -10z
m1573 -16 c3 3 1 6 -4 6 -6 0 -18 6 -29 13 -16 13 -15 13 16 9 19 -2 42 -13
52 -23 10 -11 23 -19 29 -19 7 0 3 7 -8 15 -10 9 0 6 24 -6 23 -11 45 -26 49
-33 4 -6 -2 -4 -12 4 -11 9 -16 10 -11 3 4 -7 16 -18 28 -24 16 -9 19 -8 13 1
-11 18 50 -19 86 -52 17 -16 26 -28 20 -28 -6 0 -21 11 -35 25 -14 14 -33 25
-42 25 -10 0 4 -17 34 -42 l51 -43 -26 -9 c-17 -6 -33 -5 -44 2 -15 10 -17 9
-13 -3 9 -24 -43 -31 -80 -11 -26 14 -28 15 -11 1 17 -14 18 -17 5 -25 -8 -6
-21 -7 -29 -5 -11 5 -12 3 -1 -10 10 -12 10 -15 -2 -15 -9 0 -32 -11 -52 -25
-20 -14 -44 -25 -52 -25 -8 0 -13 -4 -10 -9 6 -9 -22 -26 -37 -22 -5 1 -6 -3
-2 -9 10 -16 -44 -102 -58 -93 -8 4 -7 1 1 -10 8 -9 11 -21 7 -28 -11 -17 -7
-86 8 -161 8 -38 12 -68 10 -68 -3 0 -18 9 -33 20 -23 17 -30 18 -37 7 -6 -11
-16 -5 -43 22 l-35 36 40 -24 40 -24 -36 35 c-20 19 -50 43 -67 54 -18 10 -32
22 -32 27 0 9 17 1 42 -20 13 -12 17 -12 24 -1 4 7 4 10 0 7 -4 -4 -21 7 -37
22 -17 16 -35 27 -39 24 -4 -3 -14 3 -21 12 -12 15 -12 16 3 11 24 -10 17 17
-12 42 -14 12 -18 18 -11 14 9 -5 6 5 -7 23 -23 33 -28 53 -13 53 15 0 23 -18
11 -23 -6 -3 -5 -4 2 -3 7 2 21 -1 31 -6 11 -5 2 8 -19 30 -40 43 -64 112 -27
80 10 -8 29 -21 43 -28 16 -8 10 2 -20 30 -27 25 -40 43 -33 46 7 3 9 12 6 20
-7 19 12 18 45 -3 31 -19 20 -6 -22 25 -16 12 -27 22 -25 23 32 6 38 6 33 -2
-3 -5 2 -9 10 -9 9 0 16 5 16 11 0 5 6 7 13 4 6 -4 3 1 -7 9 -11 9 -24 16 -29
16 -4 0 -5 5 -2 10 4 6 16 8 28 4 20 -6 21 -5 7 11 -14 17 -13 18 10 12 24 -6
24 -5 6 8 -11 8 -16 15 -10 15 5 0 2 5 -6 11 -11 8 -9 9 10 3 14 -3 39 -16 55
-27 22 -16 27 -17 16 -4 -7 9 -10 17 -5 17 5 0 -6 10 -25 22 -36 23 -28 38 9
18 12 -6 24 -9 27 -7 2 3 -5 8 -16 12 -12 3 -19 10 -16 15 3 5 28 1 55 -10 59
-23 65 -19 13 10 l-38 21 45 -5 c27 -3 37 -2 26 3 -11 4 -15 10 -10 14 5 3 39
-10 74 -29 35 -18 65 -32 68 -30 2 3 -14 14 -36 25 -45 23 -62 41 -38 41 8 0
18 -4 21 -10 3 -5 12 -10 18 -9 9 0 8 2 -1 6 -6 2 -10 9 -7 14 4 5 24 0 47
-12 22 -11 43 -18 46 -15z m-1518 10 c0 -8 -19 -13 -24 -6 -3 5 1 9 9 9 8 0
15 -2 15 -3z m56 -11 c-4 -9 -1 -20 6 -24 7 -4 10 -10 8 -13 -3 -2 -13 2 -24
9 -19 14 -16 45 5 45 6 0 8 -7 5 -17z m1114 13 c0 -2 -7 -7 -16 -10 -8 -3 -12
-2 -9 4 6 10 25 14 25 6z m17 -21 c-8 -16 -21 -25 -37 -26 -16 -1 -19 -3 -8
-6 15 -4 14 -8 -7 -39 -60 -88 -70 -213 -27 -337 21 -59 20 -66 -8 -44 -9 6
-2 -1 16 -18 17 -16 49 -57 70 -90 21 -33 46 -66 56 -73 9 -7 16 -21 15 -31
-1 -15 -4 -17 -19 -8 -13 8 -14 13 -5 19 7 4 8 8 2 8 -13 0 -37 -16 -36 -24 3
-18 0 -24 -15 -30 -8 -3 -12 -2 -9 4 10 16 -7 11 -19 -5 -10 -14 -13 -14 -34
0 -26 19 -29 35 -4 31 9 -2 26 0 37 5 16 6 11 8 -20 9 l-40 2 50 10 c56 10 77
23 40 23 -14 0 -25 -3 -25 -7 0 -5 -9 -8 -20 -8 -27 0 -25 18 3 30 l22 9 -24
0 c-13 1 -29 -6 -36 -15 -11 -15 -12 -15 -12 0 0 9 3 16 7 16 4 0 7 7 7 15 0
9 -7 14 -16 13 -11 -3 -15 -13 -13 -36 3 -40 -10 -41 -37 -3 -30 42 -25 71 7
39 8 -8 12 -8 12 -1 0 6 -14 16 -30 22 -24 8 -37 24 -59 72 -30 66 -42 169
-20 169 21 0 48 -31 42 -47 -4 -11 -2 -14 8 -11 8 3 12 12 10 19 -2 8 -4 20
-4 27 0 6 -9 12 -19 12 -11 0 -16 5 -13 11 4 6 1 10 -6 8 -27 -3 -38 1 -34 14
2 6 6 31 9 55 7 53 14 65 33 58 9 -4 17 1 20 14 3 10 14 22 25 26 11 3 17 8
15 11 -3 2 -15 0 -26 -7 -29 -15 -48 -2 -22 16 11 8 21 24 23 37 2 15 10 22
28 23 14 1 42 9 63 18 21 9 42 14 46 12 5 -3 16 3 26 14 24 26 26 25 12 -5z
m-1394 -28 c-6 -10 -33 18 -33 34 0 8 7 5 19 -7 10 -10 16 -22 14 -27z m147 1
c0 -5 -11 -1 -25 8 -14 9 -25 18 -25 20 0 2 11 -2 25 -8 14 -6 25 -15 25 -20z
m55 2 c10 -11 14 -20 9 -20 -5 0 -15 9 -22 20 -7 11 -11 20 -9 20 2 0 12 -9
22 -20z m-155 0 c0 -5 -2 -10 -4 -10 -3 0 -8 5 -11 10 -3 6 -1 10 4 10 6 0 11
-4 11 -10z m324 -5 c-7 -16 -24 -21 -24 -6 0 8 7 13 27 20 1 1 0 -6 -3 -14z
m-464 1 c0 -3 -4 -8 -10 -11 -5 -3 -10 -1 -10 4 0 6 5 11 10 11 6 0 10 -2 10
-4z m45 -16 c3 -5 1 -10 -4 -10 -6 0 -11 5 -11 10 0 6 2 10 4 10 3 0 8 -4 11
-10z m75 -6 c0 -8 -4 -12 -10 -9 -5 3 -10 10 -10 16 0 5 5 9 10 9 6 0 10 -7
10 -16z m280 6 c0 -5 -7 -10 -16 -10 -8 0 -12 5 -9 10 3 6 10 10 16 10 5 0 9
-4 9 -10z m-393 -22 c-3 -8 -6 -5 -6 6 -1 11 2 17 5 13 3 -3 4 -12 1 -19z
m478 11 c10 -15 -1 -23 -20 -15 -9 3 -13 10 -10 16 8 13 22 13 30 -1z m-155
-9 c0 -5 -2 -10 -4 -10 -3 0 -8 5 -11 10 -3 6 -1 10 4 10 6 0 11 -4 11 -10z
m-182 -25 c-3 -3 -9 2 -12 12 -6 14 -5 15 5 6 7 -7 10 -15 7 -18z m362 10 c0
-8 -4 -15 -10 -15 -5 0 -7 7 -4 15 4 8 8 15 10 15 2 0 4 -7 4 -15z m-150 -5
c0 -5 -2 -10 -4 -10 -3 0 -8 5 -11 10 -3 6 -1 10 4 10 6 0 11 -4 11 -10z m35
-11 c-4 -5 -12 -9 -18 -8 -9 0 -8 2 1 6 6 2 9 10 6 15 -4 7 -2 8 5 4 6 -4 9
-12 6 -17z m2155 17 c0 -2 -7 -6 -15 -10 -8 -3 -15 -1 -15 4 0 6 7 10 15 10 8
0 15 -2 15 -4z m-2465 -15 c3 -5 1 -12 -5 -16 -5 -3 -10 1 -10 9 0 18 6 21 15
7z m215 -1 c0 -5 -2 -10 -4 -10 -3 0 -8 5 -11 10 -3 6 -1 10 4 10 6 0 11 -4
11 -10z m135 -18 c-3 -3 -11 0 -18 7 -9 10 -8 11 6 5 10 -3 15 -9 12 -12z
m-401 -8 c3 -8 2 -12 -4 -9 -6 3 -10 10 -10 16 0 14 7 11 14 -7z m246 -3 c0
-5 -7 -11 -14 -14 -10 -4 -13 -1 -9 9 6 15 23 19 23 5z m84 -17 c5 -14 4 -15
-9 -4 -17 14 -19 20 -6 20 5 0 12 -7 15 -16z m126 1 c35 -18 39 -35 9 -35 -11
0 -17 4 -14 10 4 6 -1 7 -11 3 -14 -5 -16 -3 -11 12 6 15 5 16 -8 5 -14 -12
-22 0 -8 13 9 9 10 9 43 -8z m-180 -6 c0 -6 7 -9 15 -5 9 3 15 0 15 -9 0 -8 7
-15 15 -15 20 0 19 -14 -2 -31 -10 -8 -14 -9 -10 -2 7 11 -28 53 -45 53 -4 0
-8 5 -8 10 0 6 5 10 10 10 6 0 10 -5 10 -11z m610 -3 c0 -3 -4 -8 -10 -11 -5
-3 -10 -1 -10 4 0 6 5 11 10 11 6 0 10 -2 10 -4z m-902 -41 c-3 -3 -9 2 -12
12 -6 14 -5 15 5 6 7 -7 10 -15 7 -18z m446 9 c27 -5 32 -13 17 -27 -10 -9
-15 -8 -26 6 -7 10 -16 18 -19 18 -19 -2 -26 0 -26 10 0 7 7 8 18 4 9 -4 25
-8 36 -11z m1619 -24 c4 1 20 5 37 10 20 6 30 5 30 -2 0 -6 7 -5 17 3 11 9 14
10 10 2 -6 -9 3 -11 32 -8 23 2 44 -1 47 -7 5 -7 -2 -9 -20 -4 -14 3 -26 4
-26 1 0 -9 52 -27 90 -31 86 -11 104 -15 89 -25 -11 -7 -9 -9 9 -9 28 0 74
-29 66 -41 -3 -5 -2 -9 3 -8 26 4 35 -1 24 -15 -10 -12 -6 -15 18 -21 35 -8
52 -25 19 -19 -13 2 -7 -2 12 -10 32 -13 33 -15 10 -16 -24 -2 -24 -2 5 -11
32 -9 66 -49 43 -49 -10 0 -10 -2 -1 -8 7 -4 16 -22 19 -40 6 -29 4 -32 -17
-33 -24 0 -24 0 -3 -9 43 -17 41 -60 -2 -55 -31 3 -27 -19 4 -23 29 -4 28 -22
0 -22 -19 0 -20 -2 -8 -10 12 -8 9 -10 -13 -10 -16 0 -26 -4 -23 -9 4 -5 3
-11 -1 -14 -5 -2 -3 -2 4 -1 7 2 15 -1 18 -6 4 -6 -3 -10 -13 -10 -11 0 -23
-7 -26 -16 -5 -13 -16 -15 -51 -12 -25 3 -42 2 -39 -3 3 -5 17 -9 32 -9 l27 0
-25 -13 c-49 -26 -201 -44 -234 -29 -33 16 -79 21 -99 10 -13 -7 -23 -6 -31 2
-8 8 -6 9 8 4 13 -5 17 -4 12 4 -4 7 -25 15 -47 18 -23 4 -39 12 -39 20 0 12
-26 19 -52 15 -5 0 -8 3 -8 9 0 5 -5 10 -11 10 -5 0 -7 -5 -4 -10 3 -5 1 -10
-4 -10 -15 0 -14 23 2 40 10 12 9 12 -3 3 -9 -6 -23 -7 -35 -2 -14 5 -15 8 -5
9 9 1 5 5 -9 11 -20 8 -22 11 -10 27 13 15 12 16 -3 4 -10 -8 -19 -9 -22 -3
-3 5 0 11 6 14 8 3 3 9 -12 15 -14 6 -18 11 -10 12 8 0 2 7 -15 16 -29 14 -30
14 -3 9 15 -3 30 -1 33 5 3 5 -2 10 -12 10 -11 0 -28 7 -39 15 -18 14 -17 15
11 9 17 -3 36 -7 43 -10 7 -2 10 1 7 6 -3 6 -15 10 -25 10 -26 0 -50 10 -50
22 0 5 5 6 10 3 6 -3 10 -1 10 4 0 6 -7 11 -16 11 -8 0 -13 4 -9 10 3 5 12 7
19 4 7 -3 16 1 19 9 4 10 -2 18 -16 22 -22 7 -22 7 3 15 21 7 22 8 5 9 -15 1
-17 3 -6 10 11 7 10 11 -5 20 -16 9 -13 10 19 11 20 0 37 5 37 11 0 5 -8 9
-17 8 -32 -3 -44 1 -38 11 3 6 16 10 28 11 21 0 21 1 2 9 -19 8 -19 9 2 9 16
1 21 6 17 16 -5 11 1 15 22 16 25 0 26 1 9 9 l-20 9 20 2 c11 1 31 1 45 1 l25
-1 -22 12 c-22 12 -22 13 10 26 18 7 45 19 62 26 19 9 32 10 36 4 3 -6 9 -10
12 -9z m-1786 -12 c-3 -8 -6 -5 -6 6 -1 11 2 17 5 13 3 -3 4 -12 1 -19z m115
8 c7 5 8 2 3 -6 -6 -10 -4 -12 8 -7 16 6 34 -9 24 -20 -9 -9 -66 30 -60 41 4
6 8 6 11 -2 2 -7 9 -9 14 -6z m115 -12 c-9 -9 -28 6 -21 18 4 6 10 6 17 -1 6
-6 8 -13 4 -17z m-493 0 c3 -8 2 -12 -4 -9 -6 3 -10 10 -10 16 0 14 7 11 14
-7z m2263 0 c-3 -3 -12 -4 -19 -1 -8 3 -5 6 6 6 11 1 17 -2 13 -5z m-2216 -21
c13 -16 12 -17 -3 -4 -17 13 -22 21 -14 21 2 0 10 -8 17 -17z m1013 -44 c9
-22 11 -40 5 -50 -5 -7 -9 -9 -10 -4 -3 35 -12 71 -21 89 -7 15 -7 18 0 11 6
-5 18 -26 26 -46z m-614 30 c0 -5 4 -8 9 -4 5 3 12 1 16 -5 7 -11 -5 -13 -29
-4 -18 7 -22 24 -6 24 6 0 10 -5 10 -11z m110 -14 c0 -8 -2 -15 -4 -15 -2 0
-6 7 -10 15 -3 8 -1 15 4 15 6 0 10 -7 10 -15z m-47 -19 c4 -10 1 -13 -9 -9
-7 3 -14 9 -14 14 0 14 17 10 23 -5z m397 5 c0 -5 -7 -11 -14 -14 -10 -4 -13
-1 -9 9 6 15 23 19 23 5z m-842 -26 c-3 -3 -9 2 -12 12 -6 14 -5 15 5 6 7 -7
10 -15 7 -18z m854 -7 c-7 -7 -12 -8 -12 -2 0 14 12 26 19 19 2 -3 -1 -11 -7
-17z m-832 -52 c0 -6 -7 -1 -15 10 -8 10 -15 23 -15 28 0 6 7 1 15 -10 8 -10
15 -23 15 -28z m430 24 c0 -5 -8 -10 -17 -10 -15 0 -16 2 -3 10 19 12 20 12
20 0z m483 -5 c0 -6 -7 -11 -16 -13 -12 -3 -15 1 -11 13 7 17 25 17 27 0z
m761 -17 c-10 -12 -14 -19 -8 -15 7 4 10 -18 10 -66 -1 -85 20 -135 88 -213
25 -28 42 -54 39 -58 -3 -3 1 -6 9 -6 9 0 42 -16 73 -35 32 -19 66 -37 76 -40
12 -4 16 -13 13 -30 -5 -29 -2 -30 34 -9 l27 16 -24 -21 c-13 -12 -29 -21 -37
-21 -8 0 -14 -5 -14 -12 0 -6 -2 -9 -5 -6 -3 3 -1 17 4 31 11 28 6 38 -16 30
-10 -4 -11 -8 -3 -13 8 -5 4 -15 -13 -34 -20 -22 -29 -25 -48 -17 -13 5 -19
10 -14 11 6 0 21 10 35 21 14 11 19 18 13 14 -14 -7 -58 13 -49 22 3 3 11 1
18 -5 10 -8 20 -5 38 9 21 17 22 19 3 10 -25 -13 -46 -14 -39 -3 2 4 -4 8 -14
8 -10 0 -16 -4 -14 -8 3 -4 1 -8 -5 -8 -5 0 -13 5 -17 11 -4 7 -9 8 -17 0 -7
-7 -6 -15 3 -26 11 -13 15 -13 21 -3 6 8 9 9 9 2 0 -28 -26 -33 -61 -12 l-34
22 25 8 c21 6 20 7 -10 4 -30 -3 -41 3 -86 49 -32 32 -54 64 -59 85 -4 18 -18
54 -31 79 -19 38 -21 48 -10 61 8 8 17 26 21 40 7 23 7 24 -11 6 -36 -36 -26
4 12 51 21 26 39 52 39 58 0 5 4 10 8 10 5 0 13 8 19 18 5 10 12 16 16 13 3
-3 -3 -16 -14 -28z m-834 8 c0 -3 -4 -8 -10 -11 -5 -3 -10 -1 -10 4 0 6 5 11
10 11 6 0 10 -2 10 -4z m-700 -16 c0 -5 -2 -10 -4 -10 -3 0 -8 5 -11 10 -3 6
-1 10 4 10 6 0 11 -4 11 -10z m1474 -42 c-16 -18 -30 -35 -31 -37 -2 -2 -3 5
-3 17 0 12 6 22 14 22 7 0 19 7 26 15 7 8 15 15 18 15 3 0 -7 -15 -24 -32z
m-1574 -10 c0 -12 -6 -9 -26 13 -19 22 -19 22 4 8 12 -8 22 -17 22 -21z m85
12 c3 -5 2 -10 -4 -10 -5 0 -13 5 -16 10 -3 6 -2 10 4 10 5 0 13 -4 16 -10z
m845 -10 c0 -4 -7 -10 -15 -14 -8 -3 -15 0 -15 6 0 7 -4 7 -13 -1 -15 -11 -27
-5 -27 14 0 7 13 9 35 7 19 -2 35 -8 35 -12z m-900 -21 c0 -6 -4 -7 -10 -4 -5
3 -10 11 -10 16 0 6 5 7 10 4 6 -3 10 -11 10 -16z m404 -4 c-4 -8 -16 -15 -28
-15 -20 0 -20 1 4 14 14 8 26 14 27 15 1 1 0 -6 -3 -14z m429 -8 c3 -8 -1 -14
-9 -14 -15 0 -18 9 -7 20 9 9 10 9 16 -6z m37 -17 c-18 -11 -24 -6 -16 16 5
14 9 15 19 5 9 -9 9 -14 -3 -21z m55 10 c3 -5 -1 -10 -9 -10 -9 0 -16 5 -16
10 0 6 4 10 9 10 6 0 13 -4 16 -10z m-855 -20 c0 -5 -4 -10 -10 -10 -5 0 -10
5 -10 10 0 6 5 10 10 10 6 0 10 -4 10 -10z m155 0 c3 -5 1 -10 -4 -10 -6 0
-11 5 -11 10 0 6 2 10 4 10 3 0 8 -4 11 -10z m635 -20 c0 -13 -11 -13 -30 0
-12 8 -11 10 8 10 12 0 22 -4 22 -10z m60 -12 c0 -9 -36 -5 -46 5 -4 4 5 6 19
5 15 -1 27 -6 27 -10z m-650 -24 c0 -2 -9 0 -20 6 -11 6 -20 13 -20 16 0 2 9
0 20 -6 11 -6 20 -13 20 -16z m684 18 c3 -5 -1 -9 -9 -9 -8 0 -12 4 -9 9 3 4
7 8 9 8 2 0 6 -4 9 -8z m-708 -27 c10 -8 14 -15 8 -15 -5 0 -19 7 -30 15 -10
8 -14 15 -8 15 5 0 19 -7 30 -15z m-41 -5 c3 -5 1 -10 -4 -10 -6 0 -11 5 -11
10 0 6 2 10 4 10 3 0 8 -4 11 -10z m660 -136 l6 -29 -14 30 c-8 17 -17 44 -20
60 l-6 30 14 -31 c8 -17 17 -44 20 -60z m-451 40 c9 -3 16 -10 16 -14 0 -10
-38 -1 -46 11 -6 10 7 12 30 3z m626 2 c0 -2 -7 -7 -16 -10 -8 -3 -12 -2 -9 4
6 10 25 14 25 6z m304 -41 c-4 -8 -1 -15 7 -15 22 0 0 -13 -25 -15 -22 0 -23
1 -9 22 17 26 36 31 27 8z m-738 -5 c8 0 14 -4 14 -9 0 -11 -59 -3 -80 11 -11
6 -5 8 19 4 18 -3 40 -6 47 -6z m784 -20 c0 -5 -4 -10 -10 -10 -5 0 -10 5 -10
10 0 6 5 10 10 10 6 0 10 -4 10 -10z m66 -35 c-27 -21 -52 -21 -34 0 7 8 22
14 33 14 20 0 20 0 1 -14z m394 5 c0 -5 -7 -7 -15 -4 -8 4 -15 8 -15 10 0 2 7
4 15 4 8 0 15 -4 15 -10z m-350 -14 c0 -3 -4 -8 -10 -11 -5 -3 -10 -1 -10 4 0
6 5 11 10 11 6 0 10 -2 10 -4z m-32 -18 c-3 -7 -10 -13 -15 -13 -6 0 -15 -3
-19 -7 -4 -5 -12 -8 -17 -8 -6 0 0 9 13 20 26 23 44 26 38 8z m-183 -18 c4 -6
-7 -10 -27 -9 -31 1 -32 1 -8 9 14 4 26 8 27 9 1 1 5 -3 8 -9z m185 -20 c0 -5
-4 -10 -10 -10 -5 0 -10 5 -10 10 0 6 5 10 10 10 6 0 10 -4 10 -10z m548 -67
c-6 -7 -16 -13 -22 -12 -7 0 -6 2 2 6 6 2 12 12 11 21 0 11 -2 12 -6 5 -2 -7
-9 -13 -14 -13 -6 0 -5 9 1 21 11 20 12 20 25 2 9 -13 10 -22 3 -30z m45 12
c-3 -9 -8 -14 -10 -11 -3 3 -2 9 2 15 9 16 15 13 8 -4z"/>
<path d="M1585 2740 c-3 -5 -1 -10 4 -10 6 0 11 5 11 10 0 6 -2 10 -4 10 -3 0
-8 -4 -11 -10z"/>
<path d="M1617 2723 c3 -6 11 -9 19 -6 20 7 17 19 -5 19 -11 0 -17 -6 -14 -13z"/>
<path d="M1665 2720 c3 -5 18 -10 33 -9 24 0 25 1 7 9 -28 12 -47 12 -40 0z"/>
<path d="M1838 2703 c7 -3 16 -2 19 1 4 3 -2 6 -13 5 -11 0 -14 -3 -6 -6z"/>
<path d="M1262 2680 c-62 -28 -99 -56 -99 -76 0 -15 2 -15 16 3 9 11 22 18 28
16 6 -2 14 1 18 6 4 7 -1 8 -12 4 -44 -15 8 20 63 42 32 14 52 25 44 25 -8 0
-34 -9 -58 -20z"/>
<path d="M1883 2693 c9 -2 25 -2 35 0 9 3 1 5 -18 5 -19 0 -27 -2 -17 -5z"/>
<path d="M1433 2683 c9 -2 23 -2 30 0 6 3 -1 5 -18 5 -16 0 -22 -2 -12 -5z"/>
<path d="M1493 2683 c9 -2 25 -2 35 0 9 3 1 5 -18 5 -19 0 -27 -2 -17 -5z"/>
<path d="M1428 2663 c12 -2 32 -2 45 0 12 2 2 4 -23 4 -25 0 -35 -2 -22 -4z"/>
<path d="M1615 2640 c-3 -5 -2 -10 4 -10 5 0 13 5 16 10 3 6 2 10 -4 10 -5 0
-13 -4 -16 -10z"/>
<path d="M2080 2640 c0 -5 5 -10 11 -10 5 0 7 5 4 10 -3 6 -8 10 -11 10 -2 0
-4 -4 -4 -10z"/>
<path d="M1242 2610 c-18 -16 -29 -30 -24 -30 4 0 21 14 37 30 16 17 27 30 24
30 -2 0 -19 -13 -37 -30z"/>
<path d="M2005 2630 c3 -5 11 -10 16 -10 6 0 7 5 4 10 -3 6 -11 10 -16 10 -6
0 -7 -4 -4 -10z"/>
<path d="M1450 2600 c0 -13 6 -16 25 -12 14 2 25 8 25 12 0 4 -11 10 -25 12
-19 4 -25 1 -25 -12z"/>
<path d="M2174 2565 c11 -8 29 -15 40 -15 20 0 20 0 0 15 -10 8 -28 14 -39 14
-20 0 -20 0 -1 -14z"/>
<path d="M1226 2561 c-3 -5 0 -11 8 -14 15 -6 26 1 26 15 0 11 -27 10 -34 -1z"/>
<path d="M1113 2528 c-22 -25 -43 -62 -43 -75 1 -4 8 6 17 22 8 17 25 40 36
53 11 12 18 22 15 22 -2 0 -14 -10 -25 -22z"/>
<path d="M1314 2534 c-18 -14 -18 -15 4 -4 12 6 22 13 22 15 0 8 -5 6 -26 -11z"/>
<path d="M1060 2524 c0 -6 -9 -20 -20 -31 -12 -13 -21 -41 -24 -75 l-5 -53 10
49 c5 27 19 62 31 78 11 16 17 32 14 35 -3 4 -6 2 -6 -3z"/>
<path d="M2650 2518 c0 -11 28 -10 35 1 3 6 -4 9 -15 8 -11 -1 -20 -5 -20 -9z"/>
<path d="M2540 2499 c0 -5 9 -9 19 -9 11 0 28 -3 38 -7 10 -3 15 -3 12 1 -11
12 -69 25 -69 15z"/>
<path d="M2632 2481 c-11 -7 -10 -9 3 -14 9 -4 13 -3 10 2 -3 5 3 12 12 14 13
3 14 5 3 6 -8 0 -21 -3 -28 -8z"/>
<path d="M884 2462 c-6 -4 -14 -16 -18 -27 -6 -17 -4 -17 18 4 15 14 26 26 26
28 0 5 -15 3 -26 -5z"/>
<path d="M940 2431 c-16 -33 -21 -153 -8 -172 6 -9 7 2 3 34 -7 52 12 158 25
137 5 -8 9 -6 12 7 8 29 -18 24 -32 -6z"/>
<path d="M2660 2457 c0 -3 12 -12 26 -22 15 -9 23 -12 20 -6 -7 11 -46 35 -46
28z"/>
<path d="M1199 2434 c-25 -14 -11 -17 31 -5 19 5 21 8 9 13 -8 3 -26 0 -40 -8z"/>
<path d="M2748 2398 c6 -6 18 -8 28 -6 14 3 12 5 -9 10 -19 3 -25 2 -19 -4z"/>
<path d="M2817 2389 c7 -7 15 -10 18 -7 3 3 -2 9 -12 12 -14 6 -15 5 -6 -5z"/>
<path d="M1110 2380 c0 -5 6 -10 14 -10 8 0 18 5 21 10 3 6 -3 10 -14 10 -12
0 -21 -4 -21 -10z"/>
<path d="M2870 2306 c0 -2 7 -7 16 -10 8 -3 12 -2 9 4 -6 10 -25 14 -25 6z"/>
<path d="M1265 2245 c3 -22 8 -51 11 -65 6 -25 6 -25 -10 -5 -16 19 -16 18 -2
-12 9 -17 25 -35 37 -38 15 -5 18 -10 10 -18 -7 -7 -16 -6 -30 7 -10 9 -21 14
-23 9 -3 -4 -3 -2 -2 4 2 7 -8 35 -21 62 -14 27 -25 57 -25 67 0 15 -2 16 -9
5 -6 -9 -1 -36 13 -75 25 -72 34 -88 46 -81 5 3 24 -4 42 -15 39 -24 55 -26
38 -5 -16 20 -11 19 45 -5 26 -11 52 -20 58 -19 7 0 2 4 -11 9 -12 5 -27 21
-32 35 -11 30 -24 34 -15 5 3 -11 3 -20 -2 -20 -17 0 -34 17 -38 38 -3 16 0
19 13 15 14 -5 15 -3 5 8 -7 7 -13 17 -13 23 0 5 7 1 15 -10 14 -18 15 -18 11
9 -3 15 -12 34 -20 42 -8 9 -13 22 -10 29 3 7 -2 16 -12 20 -14 5 -15 1 -10
-29 8 -39 0 -46 -14 -12 -12 30 -12 0 0 -42 5 -19 7 -38 4 -42 -6 -11 -34 0
-34 13 0 6 6 5 15 -2 16 -14 21 0 5 16 -5 5 -16 34 -25 64 -13 46 -15 48 -10
15z"/>
<path d="M1390 2248 c-10 -20 -10 -34 -1 -59 9 -27 8 -34 -5 -44 -13 -9 -13
-12 -3 -12 8 0 21 -4 30 -7 17 -7 19 0 19 68 0 22 -4 42 -9 45 -4 3 -10 13
-13 21 -4 11 -9 8 -18 -12z"/>
<path d="M2155 2236 c31 -25 46 -26 26 -2 -6 7 -22 16 -34 20 -18 4 -17 2 8
-18z"/>
<path d="M1506 2211 c-3 -5 5 -11 19 -13 30 -6 32 -2 6 12 -11 6 -22 6 -25 1z"/>
<path d="M2217 2168 c4 -37 1 -54 -15 -82 -17 -29 -18 -36 -7 -36 8 0 15 6 15
14 0 9 7 12 20 9 12 -3 20 0 20 6 0 7 -4 10 -9 6 -5 -3 -12 -1 -16 5 -8 14 21
13 48 -1 22 -12 22 -12 3 9 -10 12 -23 20 -30 19 -6 -1 -11 11 -11 28 -1 17
-6 39 -13 50 -10 17 -11 12 -5 -27z"/>
<path d="M1110 2197 c0 -10 51 -87 57 -87 5 0 -11 27 -44 75 -7 11 -13 16 -13
12z"/>
<path d="M2147 2153 c-7 -41 7 -68 23 -43 9 15 3 58 -10 73 -4 5 -10 -9 -13
-30z"/>
<path d="M1506 2171 c5 -5 20 -12 34 -16 24 -7 24 -7 5 9 -21 16 -56 23 -39 7z"/>
<path d="M2947 2159 c7 -7 15 -10 18 -7 3 3 -2 9 -12 12 -14 6 -15 5 -6 -5z"/>
<path d="M1484 2125 c11 -8 25 -15 30 -15 6 0 2 7 -8 15 -11 8 -25 15 -30 15
-6 0 -2 -7 8 -15z"/>
<path d="M2890 2136 c0 -2 8 -10 18 -17 15 -13 16 -12 3 4 -13 16 -21 21 -21
13z"/>
<path d="M1470 2101 c0 -6 6 -11 13 -11 15 0 152 -53 222 -85 96 -45 192 -83
226 -89 39 -7 19 4 -46 24 -22 7 -83 32 -135 55 -77 35 -193 83 -267 112 -7 3
-13 0 -13 -6z"/>
<path d="M1577 2099 c7 -7 15 -10 18 -7 3 3 -2 9 -12 12 -14 6 -15 5 -6 -5z"/>
<path d="M1652 2064 c10 -10 20 -16 22 -13 3 3 -5 11 -17 18 -21 13 -21 12 -5
-5z"/>
<path d="M2973 2063 c-3 -10 -8 -22 -11 -27 -3 -5 0 -6 5 -3 11 7 25 47 17 47
-3 0 -7 -8 -11 -17z"/>
<path d="M1484 2046 c11 -9 32 -15 47 -14 15 1 33 -3 41 -8 16 -13 48 -25 48
-19 0 3 -22 16 -49 30 -32 16 -51 21 -53 13 -3 -8 -11 -8 -28 1 -24 11 -24 11
-6 -3z"/>
<path d="M1840 2056 c0 -2 9 -6 20 -9 11 -3 18 -1 14 4 -5 9 -34 13 -34 5z"/>
<path d="M1760 2039 c0 -10 69 -38 75 -30 12 21 -7 39 -41 38 -19 -1 -34 -5
-34 -8z"/>
<path d="M1450 2032 c0 -5 11 -14 25 -20 14 -6 25 -10 25 -8 0 2 -11 11 -25
20 -14 9 -25 13 -25 8z"/>
<path d="M1330 2013 c13 -9 40 -18 60 -20 28 -2 31 0 17 8 -9 6 -22 7 -27 4
-6 -4 -9 -1 -8 6 2 6 -3 14 -11 17 -8 3 -11 0 -7 -7 4 -6 3 -11 -3 -11 -5 0
-13 5 -16 10 -3 6 -11 10 -18 10 -6 0 -1 -8 13 -17z"/>
<path d="M2941 2000 c19 -25 20 -31 8 -47 -12 -15 -10 -15 9 1 l22 19 -27 29
c-35 36 -39 36 -12 -2z"/>
<path d="M2470 1989 c0 -5 5 -7 10 -4 6 3 10 8 10 11 0 2 -4 4 -10 4 -5 0 -10
-5 -10 -11z"/>
<path d="M1530 1978 c8 -10 201 -90 205 -86 2 2 -35 20 -83 40 -102 43 -129
53 -122 46z"/>
<path d="M2475 1960 c-3 -5 -1 -10 4 -10 6 0 11 5 11 10 0 6 -2 10 -4 10 -3 0
-8 -4 -11 -10z"/>
<path d="M1810 1920 c8 -5 24 -9 35 -9 l20 0 -20 9 c-11 5 -27 9 -35 9 -13 1
-13 0 0 -9z"/>
<path d="M2016 1919 c5 -9 104 -43 109 -37 2 2 -23 13 -55 24 -33 11 -57 17
-54 13z"/>
<path d="M2288 1923 c7 -3 16 -2 19 1 4 3 -2 6 -13 5 -11 0 -14 -3 -6 -6z"/>
<path d="M1540 1900 c8 -5 22 -9 30 -9 10 0 8 3 -5 9 -27 12 -43 12 -25 0z"/>
<path d="M1885 1900 c11 -5 27 -9 35 -9 9 0 8 4 -5 9 -11 5 -27 9 -35 9 -9 0
-8 -4 5 -9z"/>
<path d="M2350 1894 c0 -7 52 -25 57 -20 2 2 -10 8 -26 14 -17 6 -31 9 -31 6z"/>
<path d="M1941 1887 c3 -4 64 -28 135 -53 123 -44 218 -69 294 -79 19 -3 6 2
-30 10 -53 13 -303 92 -386 121 -10 4 -16 4 -13 1z"/>
<path d="M1781 1876 c8 -9 181 -67 186 -62 3 2 -33 16 -79 31 -46 16 -90 30
-98 33 -8 3 -12 2 -9 -2z"/>
<path d="M2140 1878 c7 -8 153 -48 158 -44 2 2 -20 11 -50 19 -75 22 -114 31
-108 25z"/>
<path d="M2605 1869 c40 -9 116 -9 137 -1 9 4 -24 7 -75 7 -53 1 -79 -2 -62
-6z"/>
<path d="M2760 1841 c0 -6 4 -12 8 -15 5 -3 9 1 9 9 0 8 -4 15 -9 15 -4 0 -8
-4 -8 -9z"/>
<path d="M2468 1823 c7 -3 16 -2 19 1 4 3 -2 6 -13 5 -11 0 -14 -3 -6 -6z"/>
<path d="M1690 1810 c8 -5 22 -9 30 -9 10 0 8 3 -5 9 -27 12 -43 12 -25 0z"/>
<path d="M2781 1806 c-9 -10 -7 -13 11 -12 12 0 23 7 26 14 5 16 -23 15 -37
-2z"/>
<path d="M1818 1803 c7 -3 16 -2 19 1 4 3 -2 6 -13 5 -11 0 -14 -3 -6 -6z"/>
<path d="M2050 1780 c41 -17 91 -33 110 -36 19 -3 -10 11 -65 30 -121 43 -148
47 -45 6z"/>
<path d="M2283 1803 c9 -2 25 -2 35 0 9 3 1 5 -18 5 -19 0 -27 -2 -17 -5z"/>
<path d="M2347 1799 c7 -7 15 -10 18 -7 3 3 -2 9 -12 12 -14 6 -15 5 -6 -5z"/>
<path d="M2668 1793 c7 -3 16 -2 19 1 4 3 -2 6 -13 5 -11 0 -14 -3 -6 -6z"/>
<path d="M2708 1791 c10 -6 4 -10 -19 -15 -18 -3 -30 -8 -28 -10 7 -7 99 17
99 26 0 4 -15 8 -32 8 -22 0 -29 -3 -20 -9z"/>
<path d="M2026 1741 c10 -10 80 -24 72 -15 -4 3 -23 10 -43 14 -21 5 -34 5
-29 1z"/>
<path d="M2548 1743 c6 -2 18 -2 25 0 6 3 1 5 -13 5 -14 0 -19 -2 -12 -5z"/>
<path d="M2590 1746 c0 -2 7 -7 16 -10 8 -3 12 -2 9 4 -6 10 -25 14 -25 6z"/>
<path d="M2678 1743 c6 -2 18 -2 25 0 6 3 1 5 -13 5 -14 0 -19 -2 -12 -5z"/>
<path d="M2218 1733 c12 -2 30 -2 40 0 9 3 -1 5 -23 4 -22 0 -30 -2 -17 -4z"/>
<path d="M2295 1720 c11 -5 27 -9 35 -9 9 0 8 4 -5 9 -11 5 -27 9 -35 9 -9 0
-8 -4 5 -9z"/>
<path d="M2490 1709 c-54 -6 -53 -6 22 -7 42 -1 79 1 82 6 5 9 -31 10 -104 1z"/>
<path d="M2365 1701 c11 -4 36 -11 55 -15 24 -4 29 -3 15 3 -11 4 -36 11 -55
15 -24 4 -29 3 -15 -3z"/>
<path d="M1905 1690 c27 -12 43 -12 25 0 -8 5 -22 9 -30 9 -10 0 -8 -3 5 -9z"/>
<path d="M1975 1665 c17 -8 37 -14 45 -14 8 0 -1 7 -20 14 -46 18 -64 17 -25
0z"/>
<path d="M2582 1665 c7 -8 87 -9 95 -2 3 4 -18 7 -47 7 -29 0 -51 -2 -48 -5z"/>
<path d="M2358 1625 c30 -15 56 -24 60 -21 3 3 0 6 -7 6 -7 0 -10 4 -7 9 4 5
-4 7 -16 3 -14 -3 -19 -2 -14 6 4 7 1 12 -6 12 -7 0 -24 3 -38 6 -14 3 -1 -6
28 -21z"/>
<path d="M780 2054 c6 -6 26 -11 45 -12 20 -1 40 -4 45 -7 6 -4 10 -2 10 4 0
7 10 6 30 0 16 -6 29 -14 29 -17 -3 -20 3 -30 21 -35 10 -3 21 0 23 6 2 7 14
7 38 -1 31 -11 32 -10 15 3 -11 8 -25 15 -32 15 -7 0 -17 7 -22 17 -5 9 -22
18 -38 19 -16 2 -61 7 -101 12 -53 6 -69 5 -63 -4z"/>
<path d="M920 2066 c0 -2 13 -6 29 -8 17 -2 28 -1 25 4 -5 8 -54 12 -54 4z"/>
<path d="M698 2033 c6 -2 18 -2 25 0 6 3 1 5 -13 5 -14 0 -19 -2 -12 -5z"/>
<path d="M616 2015 c-42 -15 -137 -77 -158 -103 -7 -9 12 2 42 25 62 46 112
73 134 73 8 0 18 5 21 10 8 12 9 12 -39 -5z"/>
<path d="M793 2016 c-13 -6 -23 -14 -23 -19 0 -4 14 0 30 8 17 9 35 13 40 10
6 -3 10 -1 10 4 0 14 -28 12 -57 -3z"/>
<path d="M673 1996 c-13 -6 -23 -14 -23 -19 0 -4 5 -5 11 -1 20 12 96 -37 111
-70 16 -38 12 -86 -8 -86 -20 0 -18 -13 5 -27 16 -10 18 -9 14 8 -4 15 -2 18
13 12 17 -6 18 -5 4 12 -14 17 -13 18 8 12 22 -5 23 -4 8 12 -21 23 -20 42 2
35 9 -2 7 1 -5 7 -13 7 -23 16 -23 21 0 5 -12 21 -26 35 l-26 26 43 -6 c28 -4
38 -2 28 4 -7 5 -28 9 -46 9 -39 0 -65 9 -57 21 7 11 -5 10 -33 -5z"/>
<path d="M738 2003 c7 -3 16 -2 19 1 4 3 -2 6 -13 5 -11 0 -14 -3 -6 -6z"/>
<path d="M664 1915 c-5 -19 -1 -30 12 -40 32 -25 50 -11 20 15 -8 6 -13 17
-10 25 3 7 1 16 -5 19 -6 4 -13 -5 -17 -19z"/>
<path d="M700 1895 c7 -8 16 -15 21 -15 5 0 6 7 3 15 -4 8 -13 15 -21 15 -13
0 -13 -3 -3 -15z"/>
<path d="M550 1881 c-40 -21 -87 -67 -57 -55 9 3 17 9 17 13 0 4 18 17 40 30
22 12 40 24 40 27 0 6 -1 5 -40 -15z"/>
<path d="M464 1868 l-19 -23 23 19 c21 18 27 26 19 26 -2 0 -12 -10 -23 -22z"/>
<path d="M640 1725 c-5 -14 -12 -53 -15 -87 -6 -60 -5 -64 22 -83 l27 -19 -22
31 c-20 28 -22 40 -16 85 3 29 13 63 20 76 9 13 10 22 4 22 -6 0 -15 -11 -20
-25z"/>
<path d="M687 1713 c-10 -9 -9 -181 1 -186 4 -3 6 33 4 79 -2 56 1 90 8 100
12 14 0 21 -13 7z"/>
<path d="M1321 1804 c0 -11 3 -14 6 -6 3 7 2 16 -1 19 -3 4 -6 -2 -5 -13z"/>
<path d="M1258 1773 c5 -21 7 -23 10 -9 2 10 0 22 -6 28 -6 6 -7 0 -4 -19z"/>
<path d="M1182 1765 c0 -16 2 -22 5 -12 2 9 2 23 0 30 -3 6 -5 -1 -5 -18z"/>
<path d="M1062 1750 c0 -14 2 -19 5 -12 2 6 2 18 0 25 -3 6 -5 1 -5 -13z"/>
<path d="M1121 1694 c0 -11 3 -14 6 -6 3 7 2 16 -1 19 -3 4 -6 -2 -5 -13z"/>
<path d="M931 1644 c0 -11 3 -14 6 -6 3 7 2 16 -1 19 -3 4 -6 -2 -5 -13z"/>
<path d="M941 1584 c0 -11 3 -14 6 -6 3 7 2 16 -1 19 -3 4 -6 -2 -5 -13z"/>
<path d="M821 1574 c0 -11 3 -14 6 -6 3 7 2 16 -1 19 -3 4 -6 -2 -5 -13z"/>
<path d="M799 1558 c-5 -18 -6 -38 -1 -34 7 8 12 36 6 36 -2 0 -4 -1 -5 -2z"/>
<path d="M909 1508 c4 -28 6 -29 9 -9 2 13 0 27 -5 32 -6 6 -7 -3 -4 -23z"/>
<path d="M791 1494 c0 -11 3 -14 6 -6 3 7 2 16 -1 19 -3 4 -6 -2 -5 -13z"/>
<path d="M910 1465 c0 -5 5 -17 10 -25 5 -8 10 -10 10 -5 0 6 -5 17 -10 25 -5
8 -10 11 -10 5z"/>
<path d="M922 1395 c0 -16 2 -22 5 -12 2 9 2 23 0 30 -3 6 -5 -1 -5 -18z"/>
<path d="M791 1374 c0 -11 3 -14 6 -6 3 7 2 16 -1 19 -3 4 -6 -2 -5 -13z"/>
<path d="M931 1314 c0 -11 3 -14 6 -6 3 7 2 16 -1 19 -3 4 -6 -2 -5 -13z"/>
<path d="M977 1260 c3 -25 7 -47 9 -49 8 -9 2 55 -6 74 -6 13 -7 5 -3 -25z"/>
<path d="M961 1134 c0 -11 3 -14 6 -6 3 7 2 16 -1 19 -3 4 -6 -2 -5 -13z"/>
<path d="M877 1075 c3 -22 7 -42 9 -44 8 -9 2 45 -6 64 -7 14 -8 8 -3 -20z"/>
<path d="M972 1050 c0 -14 2 -19 5 -12 2 6 2 18 0 25 -3 6 -5 1 -5 -13z"/>
<path d="M892 1000 c0 -14 2 -19 5 -12 2 6 2 18 0 25 -3 6 -5 1 -5 -13z"/>
<path d="M982 970 c0 -14 2 -19 5 -12 2 6 2 18 0 25 -3 6 -5 1 -5 -13z"/>
<path d="M900 944 c0 -16 5 -36 10 -44 6 -10 7 -2 3 25 -7 49 -13 58 -13 19z"/>
<path d="M991 924 c0 -11 3 -14 6 -6 3 7 2 16 -1 19 -3 4 -6 -2 -5 -13z"/>
<path d="M921 824 c0 -11 3 -14 6 -6 3 7 2 16 -1 19 -3 4 -6 -2 -5 -13z"/>
<path d="M1101 794 c0 -11 3 -14 6 -6 3 7 2 16 -1 19 -3 4 -6 -2 -5 -13z"/>
<path d="M1136 735 c8 -34 12 -41 20 -33 3 4 -2 19 -10 35 l-16 28 6 -30z"/>
<path d="M1091 674 c0 -11 3 -14 6 -6 3 7 2 16 -1 19 -3 4 -6 -2 -5 -13z"/>
<path d="M1036 645 c4 -8 8 -15 10 -15 2 0 4 7 4 15 0 8 -4 15 -10 15 -5 0 -7
-7 -4 -15z"/>
<path d="M1072 643 c-6 -2 -10 -9 -6 -14 8 -14 21 -11 21 6 0 8 -1 15 -1 14
-1 0 -7 -3 -14 -6z"/>
<path d="M1528 1813 c7 -3 16 -2 19 1 4 3 -2 6 -13 5 -11 0 -14 -3 -6 -6z"/>
<path d="M1300 1679 c0 -5 9 -9 20 -9 11 0 20 2 20 4 0 2 -9 6 -20 9 -11 3
-20 1 -20 -4z"/>
<path d="M1055 1360 c-4 -12 -5 -24 -2 -27 3 -2 8 5 12 17 4 12 5 24 2 27 -3
2 -8 -5 -12 -17z"/>
<path d="M1098 1335 c2 -14 6 -25 8 -25 2 0 4 11 4 25 0 14 -4 25 -9 25 -4 0
-6 -11 -3 -25z"/>
<path d="M1053 1314 c4 -7 9 -29 13 -50 6 -39 17 -54 43 -54 8 0 5 7 -8 18
-12 9 -24 31 -27 47 -3 17 -10 35 -16 40 -7 7 -9 6 -5 -1z"/>
<path d="M1111 1290 c-1 -17 35 -100 43 -100 3 0 -3 19 -13 43 -10 23 -21 49
-24 57 -5 13 -5 13 -6 0z"/>
<path d="M1110 1150 c8 -5 20 -10 25 -10 6 0 3 5 -5 10 -8 5 -19 10 -25 10 -5
0 -3 -5 5 -10z"/>
<path d="M1870 1490 c6 -11 13 -20 16 -20 2 0 0 9 -6 20 -6 11 -13 20 -16 20
-2 0 0 -9 6 -20z"/>
<path d="M1342 1483 c9 -10 23 -31 32 -48 19 -33 18 -28 -4 28 -8 20 -21 37
-29 37 -12 0 -12 -3 1 -17z"/>
<path d="M1450 1480 c6 -11 13 -20 16 -20 2 0 0 9 -6 20 -6 11 -13 20 -16 20
-2 0 0 -9 6 -20z"/>
<path d="M1740 1450 c6 -11 13 -20 16 -20 2 0 0 9 -6 20 -6 11 -13 20 -16 20
-2 0 0 -9 6 -20z"/>
<path d="M1470 1441 c0 -6 4 -13 10 -16 6 -3 7 1 4 9 -7 18 -14 21 -14 7z"/>
<path d="M1490 1401 c0 -6 4 -13 10 -16 6 -3 7 1 4 9 -7 18 -14 21 -14 7z"/>
<path d="M1316 1367 c3 -10 9 -15 12 -12 3 3 0 11 -7 18 -10 9 -11 8 -5 -6z"/>
<path d="M1300 1310 c6 -11 13 -20 16 -20 2 0 0 9 -6 20 -6 11 -13 20 -16 20
-2 0 0 -9 6 -20z"/>
<path d="M1233 1235 c-3 -9 -3 -18 -1 -21 3 -3 8 4 11 16 6 23 -1 27 -10 5z"/>
<path d="M1990 1156 c0 -3 9 -10 20 -16 11 -6 20 -8 20 -6 0 3 -9 10 -20 16
-11 6 -20 8 -20 6z"/>
<path d="M1596 1061 c-3 -4 7 -14 22 -20 27 -13 27 -13 8 8 -22 24 -23 24 -30
12z"/>
<path d="M1580 986 c0 -2 7 -7 16 -10 8 -3 12 -2 9 4 -6 10 -25 14 -25 6z"/>
<path d="M1568 1243 c7 -3 16 -2 19 1 4 3 -2 6 -13 5 -11 0 -14 -3 -6 -6z"/>
<path d="M1510 1225 c-14 -8 -20 -14 -15 -14 6 0 21 6 35 14 14 8 21 14 15 14
-5 0 -21 -6 -35 -14z"/>
<path d="M1451 835 c-2 -31 65 -95 97 -94 l27 2 -25 4 c-31 6 -88 59 -93 87
-4 20 -4 20 -6 1z"/>
<path d="M1520 808 c41 -45 50 -53 50 -45 0 2 -21 23 -47 47 l-48 45 45 -47z"/>
<path d="M2168 1023 c6 -2 18 -2 25 0 6 3 1 5 -13 5 -14 0 -19 -2 -12 -5z"/>
<path d="M2428 953 c7 -3 16 -2 19 1 4 3 -2 6 -13 5 -11 0 -14 -3 -6 -6z"/>
<path d="M2468 863 c7 -3 16 -2 19 1 4 3 -2 6 -13 5 -11 0 -14 -3 -6 -6z"/>
<path d="M2628 843 c7 -3 16 -2 19 1 4 3 -2 6 -13 5 -11 0 -14 -3 -6 -6z"/>
<path d="M2745 790 c3 -5 10 -10 16 -10 5 0 9 5 9 10 0 6 -7 10 -16 10 -8 0
-12 -4 -9 -10z"/>
<path d="M2588 753 c7 -3 16 -2 19 1 4 3 -2 6 -13 5 -11 0 -14 -3 -6 -6z"/>
<path d="M2768 693 c7 -3 16 -2 19 1 4 3 -2 6 -13 5 -11 0 -14 -3 -6 -6z"/>
<path d="M2678 553 c7 -3 16 -2 19 1 4 3 -2 6 -13 5 -11 0 -14 -3 -6 -6z"/>
<path d="M1921 648 c-1 -10 4 -18 10 -18 7 0 17 -7 24 -17 8 -11 14 -13 19 -5
4 7 2 12 -4 12 -6 0 -8 5 -4 12 4 7 3 8 -4 4 -7 -4 -12 -2 -12 4 0 6 -4 9 -9
6 -5 -4 -12 0 -14 6 -3 8 -6 6 -6 -4z"/>
<path d="M2007 549 c7 -7 15 -10 18 -7 3 3 -2 9 -12 12 -14 6 -15 5 -6 -5z"/>
<path d="M1992 524 c10 -10 20 -16 22 -13 3 3 -5 11 -17 18 -21 13 -21 12 -5
-5z"/>
<path d="M2037 498 c6 -10 45 -10 60 0 7 5 -4 8 -26 7 -22 0 -37 -3 -34 -7z"/>
</g>
</svg>
